<?xml version="1.0" encoding="UTF-8" standalone="no"?>
<!-- Created with Inkscape (http://www.inkscape.org/) -->

<svg
   xmlns:dc="http://purl.org/dc/elements/1.1/"
   xmlns:cc="http://creativecommons.org/ns#"
   xmlns:rdf="http://www.w3.org/1999/02/22-rdf-syntax-ns#"
   xmlns:svg="http://www.w3.org/2000/svg"
   xmlns="http://www.w3.org/2000/svg"
   xmlns:xlink="http://www.w3.org/1999/xlink"
   xmlns:sodipodi="http://sodipodi.sourceforge.net/DTD/sodipodi-0.dtd"
   xmlns:inkscape="http://www.inkscape.org/namespaces/inkscape"
   width="88.323082mm"
   height="29.209309mm"
   viewBox="0 0 88.323079 29.20931"
   version="1.1"
   id="svg8"
   inkscape:version="0.92.4 5da689c313, 2019-01-14"
   sodipodi:docname="button2.svg"
   inkscape:export-filename="/home/denissalem/hd_storage/works/UI/button1-empty.svg.png"
   inkscape:export-xdpi="53.426094"
   inkscape:export-ydpi="53.426094">
  <defs
     id="defs2">
    <linearGradient
       inkscape:collect="always"
       id="linearGradient2279">
      <stop
         style="stop-color:#ffffff;stop-opacity:1;"
         offset="0"
         id="stop2275" />
      <stop
         style="stop-color:#000000;stop-opacity:1"
         offset="1"
         id="stop2277" />
    </linearGradient>
    <linearGradient
       id="linearGradient2257"
       inkscape:collect="always">
      <stop
         id="stop2253"
         offset="0"
         style="stop-color:#101010;stop-opacity:1;" />
      <stop
         id="stop2255"
         offset="1"
         style="stop-color:#ffffff;stop-opacity:1" />
    </linearGradient>
    <linearGradient
       inkscape:collect="always"
       xlink:href="#linearGradient2257"
       id="linearGradient2261"
       gradientUnits="userSpaceOnUse"
       x1="99.218758"
       y1="66.812538"
       x2="99.218758"
       y2="94.593788" />
    <linearGradient
       inkscape:collect="always"
       xlink:href="#linearGradient2257"
       id="linearGradient2273"
       gradientUnits="userSpaceOnUse"
       x1="450.54764"
       y1="201.37207"
       x2="-30.427073"
       y2="26.180098" />
    <linearGradient
       inkscape:collect="always"
       xlink:href="#linearGradient2279"
       id="linearGradient2281"
       x1="103.18751"
       y1="74.750038"
       x2="103.18751"
       y2="110.46879"
       gradientUnits="userSpaceOnUse" />
    <linearGradient
       gradientTransform="matrix(1.0921555,0,0,1.4182432,-12.258541,-36.216762)"
       inkscape:collect="always"
       xlink:href="#linearGradient2257"
       id="linearGradient2273-6"
       gradientUnits="userSpaceOnUse"
       x1="108.12736"
       y1="111.82272"
       x2="108.12736"
       y2="76.376869" />
    <filter
       inkscape:collect="always"
       style="color-interpolation-filters:sRGB"
       id="filter5507"
       x="-0.029441636"
       width="1.0588833"
       y="-0.10106987"
       height="1.2021397">
      <feGaussianBlur
         inkscape:collect="always"
         stdDeviation="1.0533641"
         id="feGaussianBlur5509" />
    </filter>
  </defs>
  <sodipodi:namedview
     id="base"
     pagecolor="#ffffff"
     bordercolor="#666666"
     borderopacity="1.0"
     inkscape:pageopacity="0.0"
     inkscape:pageshadow="2"
     inkscape:zoom="0.35"
     inkscape:cx="712.67352"
     inkscape:cy="-1.2876085"
     inkscape:document-units="mm"
     inkscape:current-layer="layer1"
     showgrid="false"
     inkscape:snap-bbox="true"
     inkscape:bbox-paths="true"
     inkscape:bbox-nodes="true"
     inkscape:snap-bbox-edge-midpoints="true"
     inkscape:snap-bbox-midpoints="true"
     fit-margin-top="0"
     fit-margin-left="0"
     fit-margin-right="0"
     fit-margin-bottom="0"
     inkscape:window-width="1362"
     inkscape:window-height="729"
     inkscape:window-x="0"
     inkscape:window-y="18"
     inkscape:window-maximized="0"
     inkscape:snap-center="true"
     inkscape:snap-object-midpoints="true"
     inkscape:snap-text-baseline="true"
     inkscape:object-paths="true"
     inkscape:snap-intersection-paths="true"
     inkscape:snap-smooth-nodes="true"
     inkscape:snap-midpoints="true"
     inkscape:snap-nodes="true"
     inkscape:snap-others="true"
     inkscape:snap-page="true"
     inkscape:snap-grids="true"
     inkscape:snap-global="true">
    <inkscape:grid
       type="xygrid"
       id="grid4518"
       originx="-86.206895"
       originy="-196.86859" />
  </sodipodi:namedview>
  <metadata
     id="metadata5">
    <rdf:RDF>
      <cc:Work
         rdf:about="">
        <dc:format>image/svg+xml</dc:format>
        <dc:type
           rdf:resource="http://purl.org/dc/dcmitype/StillImage" />
        <dc:title></dc:title>
      </cc:Work>
    </rdf:RDF>
  </metadata>
  <g
     inkscape:label="Knob"
     inkscape:groupmode="layer"
     id="layer1"
     style="opacity:1"
     transform="translate(-86.206912,-70.92216)">
    <rect
       style="display:inline;opacity:1;fill:url(#linearGradient2273-6);fill-opacity:1;stroke:none;stroke-width:1.24456501;stroke-linecap:butt;stroke-linejoin:round;stroke-miterlimit:4;stroke-dasharray:none;stroke-dashoffset:0;stroke-opacity:1;filter:url(#filter5507)"
       id="rect2263-0"
       width="85.867302"
       height="25.01313"
       x="87.434799"
       y="73.549416"
       ry="0.75048649"
       inkscape:label="shadow"
       transform="matrix(0.97140041,0,0,0.97140041,3.7284843,1.9319992)" />
    <rect
       style="display:inline;opacity:1;fill:#202020;fill-opacity:1;stroke:url(#linearGradient2261);stroke-width:1.25;stroke-linecap:butt;stroke-linejoin:round;stroke-miterlimit:4;stroke-dasharray:none;stroke-dashoffset:0;stroke-opacity:0.85375492"
       id="rect2237"
       width="83.34375"
       height="22.489594"
       x="88.635429"
       y="74.750038"
       ry="1.3229138"
       inkscape:label="button_base" />
    <rect
       style="display:inline;opacity:1;fill:url(#linearGradient2273);fill-opacity:1;stroke:url(#linearGradient2281);stroke-width:1.25;stroke-linecap:butt;stroke-linejoin:round;stroke-miterlimit:4;stroke-dasharray:none;stroke-dashoffset:0;stroke-opacity:1"
       id="rect2263"
       width="78.052086"
       height="17.197931"
       x="91.281258"
       y="77.395866"
       ry="0.52916628"
       inkscape:label="button" />
    <path
       style="color:#000000;font-style:normal;font-variant:normal;font-weight:normal;font-stretch:normal;font-size:medium;line-height:normal;font-family:sans-serif;font-variant-ligatures:normal;font-variant-position:normal;font-variant-caps:normal;font-variant-numeric:normal;font-variant-alternates:normal;font-feature-settings:normal;text-indent:0;text-align:start;text-decoration:none;text-decoration-line:none;text-decoration-style:solid;text-decoration-color:#000000;letter-spacing:normal;word-spacing:normal;text-transform:none;writing-mode:lr-tb;direction:ltr;text-orientation:mixed;dominant-baseline:auto;baseline-shift:baseline;text-anchor:start;white-space:normal;shape-padding:0;clip-rule:nonzero;display:none;overflow:visible;visibility:visible;opacity:0;isolation:auto;mix-blend-mode:normal;color-interpolation:sRGB;color-interpolation-filters:linearRGB;solid-color:#000000;solid-opacity:1;vector-effect:none;fill:#202020;fill-opacity:1;fill-rule:nonzero;stroke:none;stroke-width:3.77952766;stroke-linecap:butt;stroke-linejoin:round;stroke-miterlimit:4;stroke-dasharray:none;stroke-dashoffset:0;stroke-opacity:1;color-rendering:auto;image-rendering:auto;shape-rendering:auto;text-rendering:auto;enable-background:accumulate"
       d="m 57.498047,33.109375 c -11.624119,4e-6 -21.656081,8.23203 -23.923828,19.632813 -2.267755,11.400748 3.850543,22.842625 14.589843,27.291015 l 1.445313,-3.490234 C 40.514498,72.775759 35.362704,63.129715 37.283203,53.474609 39.203721,43.819542 47.653829,36.888683 57.498047,36.888672 c 9.844237,1.9e-5 18.294352,6.932789 20.214844,16.58789 1.920529,9.655072 -3.237165,19.293322 -12.332032,23.060547 l 1.445313,3.492188 C 77.565473,75.58094 83.687676,64.14099 81.419922,52.740234 80.852993,49.890021 79.796225,47.236194 78.355469,44.861328 74.033125,37.73673 66.216139,33.109409 57.498047,33.109375 Z m -2.498055,8.890441 v 10 h 5 v -10 z"
       transform="matrix(0.26458333,0,0,0.26458333,84.666679,70.781334)"
       id="path2414"
       inkscape:connector-curvature="0"
       sodipodi:nodetypes="ccccccccccccccccc"
       sodipodi:insensitive="true"
       inkscape:label="knob" />
    <path
       style="display:none;opacity:0;fill:none;fill-rule:evenodd;stroke:#202020;stroke-width:0.93569946;stroke-linecap:butt;stroke-linejoin:miter;stroke-miterlimit:4;stroke-dasharray:none;stroke-opacity:1"
       d="m 93.07203,86.656285 c 0,0 0,-4.951409 3.713558,-4.951409 2.475704,0 3.713562,9.902819 6.189262,9.902819 3.71356,0 3.71356,-4.95141 3.71356,-4.95141"
       id="path2421"
       inkscape:connector-curvature="0"
       sodipodi:nodetypes="cccc"
       inkscape:label="curve" />
    <path
       style="color:#000000;font-style:normal;font-variant:normal;font-weight:normal;font-stretch:normal;font-size:medium;line-height:normal;font-family:sans-serif;font-variant-ligatures:normal;font-variant-position:normal;font-variant-caps:normal;font-variant-numeric:normal;font-variant-alternates:normal;font-feature-settings:normal;text-indent:0;text-align:start;text-decoration:none;text-decoration-line:none;text-decoration-style:solid;text-decoration-color:#000000;letter-spacing:normal;word-spacing:normal;text-transform:none;writing-mode:lr-tb;direction:ltr;text-orientation:mixed;dominant-baseline:auto;baseline-shift:baseline;text-anchor:start;white-space:normal;shape-padding:0;clip-rule:nonzero;display:none;overflow:visible;visibility:visible;opacity:0;isolation:auto;mix-blend-mode:normal;color-interpolation:sRGB;color-interpolation-filters:linearRGB;solid-color:#000000;solid-opacity:1;vector-effect:none;fill:#000000;fill-opacity:1;fill-rule:evenodd;stroke:none;stroke-width:3.77952766;stroke-linecap:round;stroke-linejoin:round;stroke-miterlimit:4;stroke-dasharray:none;stroke-dashoffset:0;stroke-opacity:1;color-rendering:auto;image-rendering:auto;shape-rendering:auto;text-rendering:auto;enable-background:accumulate"
       d="m 57.974609,33.085938 a 1.8899528,1.8899528 0 0 0 -1.867187,1.912109 v 34.441406 l -6.769531,-6.775391 a 1.8899528,1.8899528 0 0 0 -1.357422,-0.576171 1.8899528,1.8899528 0 0 0 -1.314453,3.248047 l 9.99414,10.003906 a 1.8899528,1.8899528 0 0 0 2.673828,0 L 69.335938,65.335938 a 1.8899528,1.8899528 0 1 0 -2.671876,-2.671876 l -6.777343,6.775391 V 34.998047 a 1.8899528,1.8899528 0 0 0 -1.91211,-1.912109 z M 34.972656,68.082031 a 1.8899528,1.8899528 0 0 0 -1.859375,1.919922 v 9.996094 a 1.8899528,1.8899528 0 0 0 1.888672,1.888672 h 45 a 1.8899528,1.8899528 0 0 0 1.890625,-1.888672 v -9.996094 a 1.8899528,1.8899528 0 1 0 -3.779297,0 v 8.105469 H 36.892578 v -8.105469 a 1.8899528,1.8899528 0 0 0 -1.919922,-1.919922 z"
       transform="matrix(0.26458333,0,0,0.26458333,84.666679,70.781334)"
       id="path927"
       inkscape:connector-curvature="0"
       inkscape:label="save" />
    <path
       style="color:#000000;font-style:normal;font-variant:normal;font-weight:normal;font-stretch:normal;font-size:medium;line-height:normal;font-family:sans-serif;font-variant-ligatures:normal;font-variant-position:normal;font-variant-caps:normal;font-variant-numeric:normal;font-variant-alternates:normal;font-feature-settings:normal;text-indent:0;text-align:start;text-decoration:none;text-decoration-line:none;text-decoration-style:solid;text-decoration-color:#000000;letter-spacing:normal;word-spacing:normal;text-transform:none;writing-mode:lr-tb;direction:ltr;text-orientation:mixed;dominant-baseline:auto;baseline-shift:baseline;text-anchor:start;white-space:normal;shape-padding:0;clip-rule:nonzero;display:none;overflow:visible;visibility:visible;opacity:0;isolation:auto;mix-blend-mode:normal;color-interpolation:sRGB;color-interpolation-filters:linearRGB;solid-color:#000000;solid-opacity:1;vector-effect:none;fill:#000000;fill-opacity:1;fill-rule:evenodd;stroke:none;stroke-width:3.77952766;stroke-linecap:round;stroke-linejoin:round;stroke-miterlimit:4;stroke-dasharray:none;stroke-dashoffset:0;stroke-opacity:1;color-rendering:auto;image-rendering:auto;shape-rendering:auto;text-rendering:auto;enable-background:accumulate"
       d="m 57.996094,33.078125 c -0.483909,0 -0.966842,0.18531 -1.335938,0.554687 l -9.99414,10.003907 c -1.22072,1.181393 -0.384324,3.248141 1.314453,3.248047 0.511823,-3.29e-4 1.001617,-0.208235 1.357422,-0.576172 l 6.769531,-6.775391 v 34.441406 c -0.01231,1.043581 0.823611,1.899637 1.867187,1.91211 1.061178,0.01253 1.923448,-0.850928 1.91211,-1.91211 V 39.533203 l 6.777343,6.775391 c 1.780612,1.877008 4.548902,-0.891272 2.671876,-2.671875 L 59.333984,33.632812 c -0.369089,-0.369377 -0.853982,-0.554687 -1.33789,-0.554687 z m 22.005859,35 c -0.956277,0 -1.911613,0.641321 -1.888672,1.923828 v 8.105469 H 36.892578 v -8.105469 c 0.01701,-1.067331 -0.852591,-1.936983 -1.919922,-1.919922 -1.04361,0.01663 -1.876058,0.876311 -1.859375,1.919922 v 9.996094 c 7.07e-4,1.04279 0.845882,1.887965 1.888672,1.888672 h 45 c 1.043565,3.74e-4 1.889907,-0.845114 1.890625,-1.888672 v -9.996094 c 0.02287,-1.282507 -0.934348,-1.923828 -1.890625,-1.923828 z"
       transform="matrix(0.26458333,0,0,0.26458333,84.666679,70.781334)"
       id="path927-6"
       inkscape:connector-curvature="0"
       inkscape:label="load" />
  </g>
</svg>
