<?xml version="1.0" encoding="UTF-8" standalone="no"?>
<!-- Created with Inkscape (http://www.inkscape.org/) -->

<svg
   xmlns:dc="http://purl.org/dc/elements/1.1/"
   xmlns:cc="http://creativecommons.org/ns#"
   xmlns:rdf="http://www.w3.org/1999/02/22-rdf-syntax-ns#"
   xmlns:svg="http://www.w3.org/2000/svg"
   xmlns="http://www.w3.org/2000/svg"
   xmlns:xlink="http://www.w3.org/1999/xlink"
   xmlns:sodipodi="http://sodipodi.sourceforge.net/DTD/sodipodi-0.dtd"
   xmlns:inkscape="http://www.inkscape.org/namespaces/inkscape"
   version="1.1"
   id="svg869"
   width="820"
   height="343.12057"
   viewBox="0 0 820 343.12057"
   sodipodi:docname="screen1.svg"
   inkscape:version="0.92.4 5da689c313, 2019-01-14">
  <metadata
     id="metadata875">
    <rdf:RDF>
      <cc:Work
         rdf:about="">
        <dc:format>image/svg+xml</dc:format>
        <dc:type
           rdf:resource="http://purl.org/dc/dcmitype/StillImage" />
        <dc:title></dc:title>
      </cc:Work>
    </rdf:RDF>
  </metadata>
  <defs
     id="defs873">
    <linearGradient
       inkscape:collect="always"
       id="linearGradient1039">
      <stop
         style="stop-color:#ffffff;stop-opacity:1"
         offset="0"
         id="stop1035" />
      <stop
         style="stop-color:#ffffff;stop-opacity:0"
         offset="1"
         id="stop1037" />
    </linearGradient>
    <linearGradient
       id="linearGradient954"
       inkscape:collect="always">
      <stop
         id="stop950"
         offset="0"
         style="stop-color:#fbfbfb;stop-opacity:1" />
      <stop
         id="stop952"
         offset="1"
         style="stop-color:#000000;stop-opacity:1" />
    </linearGradient>
    <linearGradient
       inkscape:collect="always"
       id="linearGradient902">
      <stop
         style="stop-color:#fbfbfb;stop-opacity:1"
         offset="0"
         id="stop898" />
      <stop
         style="stop-color:#000000;stop-opacity:0.50196081"
         offset="1"
         id="stop900" />
    </linearGradient>
    <linearGradient
       inkscape:collect="always"
       xlink:href="#linearGradient902"
       id="linearGradient904"
       x1="420"
       y1="43.120575"
       x2="420"
       y2="303.12057"
       gradientUnits="userSpaceOnUse" />
    <linearGradient
       inkscape:collect="always"
       xlink:href="#linearGradient954"
       id="linearGradient948"
       gradientUnits="userSpaceOnUse"
       x1="420"
       y1="283.12057"
       x2="420"
       y2="63.120575" />
    <linearGradient
       inkscape:collect="always"
       xlink:href="#linearGradient1039"
       id="linearGradient1041"
       x1="0"
       y1="3.120575"
       x2="820"
       y2="343.12057"
       gradientUnits="userSpaceOnUse" />
    <filter
       inkscape:collect="always"
       style="color-interpolation-filters:sRGB"
       id="filter1115"
       x="-0.0084878049"
       width="1.0169756"
       y="-0.020470588"
       height="1.0409412">
      <feGaussianBlur
         inkscape:collect="always"
         stdDeviation="2.9"
         id="feGaussianBlur1117" />
    </filter>
  </defs>
  <sodipodi:namedview
     pagecolor="#ffffff"
     bordercolor="#666666"
     borderopacity="1"
     objecttolerance="10"
     gridtolerance="10"
     guidetolerance="10"
     inkscape:pageopacity="0"
     inkscape:pageshadow="2"
     inkscape:window-width="1362"
     inkscape:window-height="729"
     id="namedview871"
     showgrid="false"
     fit-margin-top="0"
     fit-margin-left="0"
     fit-margin-right="0"
     fit-margin-bottom="0"
     inkscape:zoom="0.40780142"
     inkscape:cx="702.01474"
     inkscape:cy="192.74537"
     inkscape:window-x="0"
     inkscape:window-y="18"
     inkscape:window-maximized="0"
     inkscape:current-layer="svg869">
    <inkscape:grid
       type="xygrid"
       id="grid879"
       originx="0"
       originy="0" />
  </sodipodi:namedview>
  <rect
     style="display:none;opacity:1;fill:#c2c2c2;fill-opacity:1;stroke:none;stroke-width:7.55905533;stroke-linecap:round;stroke-linejoin:round;stroke-miterlimit:4;stroke-dasharray:none;stroke-dashoffset:0;stroke-opacity:1;paint-order:normal"
     id="rect930"
     width="1006.736"
     height="548.31219"
     x="-60"
     y="-76.879425"
     sodipodi:insensitive="true" />
  <rect
     style="display:none;opacity:1;fill:url(#linearGradient904);fill-opacity:1;stroke:none;stroke-width:7.55905533;stroke-linecap:round;stroke-linejoin:round;stroke-miterlimit:4;stroke-dasharray:none;stroke-dashoffset:0;stroke-opacity:1;paint-order:normal;filter:url(#filter1115)"
     id="rect881-3"
     width="800"
     height="320"
     x="10"
     y="13.120575"
     ry="0"
     inkscape:label="shadow"
     sodipodi:insensitive="true" />
  <rect
     style="display:none;opacity:1;fill:#222222;fill-opacity:1;stroke:url(#linearGradient948);stroke-width:3.77952766;stroke-linecap:round;stroke-linejoin:round;stroke-miterlimit:4;stroke-dasharray:none;stroke-dashoffset:0;stroke-opacity:1;paint-order:normal"
     id="rect881"
     width="780"
     height="300"
     x="20"
     y="23.120575"
     ry="0"
     inkscape:label="screen"
     sodipodi:insensitive="true" />
  <path
     style="display:none;opacity:0.06199999;fill:url(#linearGradient1041);fill-opacity:1;fill-rule:evenodd;stroke:none;stroke-width:1px;stroke-linecap:butt;stroke-linejoin:miter;stroke-opacity:1"
     d="m 25,318.12057 h 95 c 138.36956,-68.02595 197.16601,-168.07405 675,-175 V 28.120575 H 25 Z"
     id="path1025"
     inkscape:connector-curvature="0"
     sodipodi:nodetypes="cccccc"
     inkscape:label="light"
     sodipodi:insensitive="true" />
  <path
     style="color:#000000;font-style:normal;font-variant:normal;font-weight:normal;font-stretch:normal;font-size:medium;line-height:normal;font-family:sans-serif;font-variant-ligatures:normal;font-variant-position:normal;font-variant-caps:normal;font-variant-numeric:normal;font-variant-alternates:normal;font-feature-settings:normal;text-indent:0;text-align:start;text-decoration:none;text-decoration-line:none;text-decoration-style:solid;text-decoration-color:#000000;letter-spacing:normal;word-spacing:normal;text-transform:none;writing-mode:lr-tb;direction:ltr;text-orientation:mixed;dominant-baseline:auto;baseline-shift:baseline;text-anchor:start;white-space:normal;shape-padding:0;clip-rule:nonzero;display:inline;overflow:visible;visibility:visible;opacity:1;isolation:auto;mix-blend-mode:normal;color-interpolation:sRGB;color-interpolation-filters:linearRGB;solid-color:#000000;solid-opacity:1;vector-effect:none;fill:#ffffff;fill-opacity:1;fill-rule:evenodd;stroke:none;stroke-width:1px;stroke-linecap:butt;stroke-linejoin:miter;stroke-miterlimit:4;stroke-dasharray:none;stroke-dashoffset:0;stroke-opacity:1;color-rendering:auto;image-rendering:auto;shape-rendering:auto;text-rendering:auto;enable-background:accumulate"
     d="m 39.5,23.121094 v 19.5 H 20 v 1 h 19.5 v 19 H 20 v 1 h 19.5 v 19 H 20 v 1 H 39.5 V 102.62109 H 20 v 1 h 19.5 v 19 H 20 v 1 h 19.5 v 19 H 20 v 1 h 19.5 v 19 H 20 v 1 h 19.5 v 19 H 20 v 1 h 19.5 v 19 H 20 v 1 h 19.5 v 19 H 20 v 1 h 19.5 v 19 H 20 v 1 h 19.5 v 19 H 20 v 1 h 19.5 v 19 H 20 v 1 h 19.5 v 19 H 20 v 1 h 19.5 v 19.5 h 1 v -19.5 h 19 v 19.5 h 1 v -19.5 h 19 v 19.5 h 1 v -19.5 h 19 v 19.5 h 1 v -19.5 h 19 v 19.5 h 1 v -19.5 h 19 v 19.5 h 1 v -19.5 h 19 v 19.5 h 1 v -19.5 h 19 v 19.5 h 1 v -19.5 h 19 v 19.5 h 1 v -19.5 h 19 v 19.5 h 1 v -19.5 h 19 v 19.5 h 1 v -19.5 h 19 v 19.5 h 1 v -19.5 h 19 v 19.5 h 1 v -19.5 h 19 v 19.5 h 1 v -19.5 h 19 v 19.5 h 1 v -19.5 h 19 v 19.5 h 1 v -19.5 h 19 v 19.5 h 1 v -19.5 h 19 v 19.5 h 1 v -19.5 h 19 v 19.5 h 1 v -19.5 h 19 v 19.5 h 1 v -19.5 h 19 v 19.5 h 1 v -19.5 h 19 v 19.5 h 1 v -19.5 h 19 v 19.5 h 1 v -19.5 h 19 v 19.5 h 1 v -19.5 h 19 v 19.5 h 1 v -19.5 h 19 v 19.5 h 1 v -19.5 h 19 v 19.5 h 1 v -19.5 h 19 v 19.5 h 1 v -19.5 h 19 v 19.5 h 1 v -19.5 h 19 v 19.5 h 1 v -19.5 h 19 v 19.5 h 1 v -19.5 h 19 v 19.5 h 1 v -19.5 h 19 v 19.5 h 1 v -19.5 h 19 v 19.5 h 1 v -19.5 h 19 v 19.5 h 1 v -19.5 h 19 v 19.5 h 1 v -19.5 h 19 v 19.5 h 1 v -19.5 h 19 v 19.5 h 1 v -19.5 H 800 v -1 h -19.5 v -19 H 800 v -1 h -19.5 v -19 H 800 v -1 h -19.5 v -19 H 800 v -1 h -19.5 v -19 H 800 v -1 h -19.5 v -19 H 800 v -1 h -19.5 v -19 H 800 v -1 h -19.5 v -19 H 800 v -1 h -19.5 v -19 H 795 v -1 h -14.5 v -19 H 800 v -1 h -19.5 v -19 H 800 v -1 H 780.5 V 83.621094 H 800 v -1 h -19.5 v -19 H 800 v -1 h -19.5 v -19 H 800 v -1 h -19.5 v -19.5 h -1 v 19.5 h -19 v -19.5 h -1 v 19.5 h -19 v -19.5 h -1 v 19.5 h -19 v -19.5 h -1 v 19.5 h -19 v -19.5 h -1 v 19.5 h -19 v -19.5 h -1 v 19.5 h -19 v -19.5 h -1 v 19.5 h -19 v -19.5 h -1 v 19.5 h -19 v -19.5 h -1 v 19.5 h -19 v -19.5 h -1 v 19.5 h -19 v -19.5 h -1 v 19.5 h -19 v -19.5 h -1 v 19.5 h -19 v -19.5 h -1 v 19.5 h -19 v -19.5 h -1 v 19.5 h -19 v -19.5 h -1 v 19.5 h -19 v -19.5 h -1 v 19.5 h -19 v -19.5 h -1 v 19.5 h -19 v -19.5 h -1 v 19.5 h -19 v -19.5 h -1 v 19.5 h -19 v -19.5 h -1 v 19.5 h -19 v -19.5 h -1 v 19.5 h -19 v -19.5 h -1 v 19.5 h -19 v -19.5 h -1 v 19.5 h -19 v -19.5 h -1 v 19.5 h -19 v -19.5 h -1 v 19.5 h -19 v -19.5 h -1 v 19.5 h -19 v -19.5 h -1 v 19.5 h -19 v -19.5 h -1 v 19.5 h -19 v -19.5 h -1 v 19.5 h -19 v -19.5 h -1 v 19.5 h -19 v -19.5 h -1 v 19.5 h -19 v -19.5 h -1 v 19.5 h -19 v -19.5 h -1 v 19.5 h -19 v -19.5 h -1 v 19.5 h -19 v -19.5 h -1 v 19.5 h -19 v -19.5 h -1 v 19.5 h -19 v -19.5 h -1 v 19.5 h -19 v -19.5 z m 1,20.5 h 19 v 19 h -19 z m 20,0 h 19 v 19 h -19 z m 20,0 h 19 v 19 h -19 z m 20,0 h 19 v 19 h -19 z m 20,0 h 19 v 19 h -19 z m 20,0 h 19 v 19 h -19 z m 20,0 h 19 v 19 h -19 z m 20,0 h 19 v 19 h -19 z m 20,0 h 19 v 19 h -19 z m 20,0 h 19 v 19 h -19 z m 20,0 h 19 v 19 h -19 z m 20,0 h 19 v 19 h -19 z m 20,0 h 19 v 19 h -19 z m 20,0 h 19 v 19 h -19 z m 20,0 h 19 v 19 h -19 z m 20,0 h 19 v 19 h -19 z m 20,0 h 19 v 19 h -19 z m 20,0 h 19 v 19 h -19 z m 20,0 h 19 v 19 h -19 z m 20,0 h 19 v 19 h -19 z m 20,0 h 19 v 19 h -19 z m 20,0 h 19 v 19 h -19 z m 20,0 h 19 v 19 h -19 z m 20,0 h 19 v 19 h -19 z m 20,0 h 19 v 19 h -19 z m 20,0 h 19 v 19 h -19 z m 20,0 h 19 v 19 h -19 z m 20,0 h 19 v 19 h -19 z m 20,0 h 19 v 19 h -19 z m 20,0 h 19 v 19 h -19 z m 20,0 h 19 v 19 h -19 z m 20,0 h 19 v 19 h -19 z m 20,0 h 19 v 19 h -19 z m 20,0 h 19 v 19 h -19 z m 20,0 h 19 v 19 h -19 z m 20,0 h 19 v 19 h -19 z m 20,0 h 19 v 19 h -19 z m -720,20 h 19 v 19 h -19 z m 20,0 h 19 v 19 h -19 z m 20,0 h 19 v 19 h -19 z m 20,0 h 19 v 19 h -19 z m 20,0 h 19 v 19 h -19 z m 20,0 h 19 v 19 h -19 z m 20,0 h 19 v 19 h -19 z m 20,0 h 19 v 19 h -19 z m 20,0 h 19 v 19 h -19 z m 20,0 h 19 v 19 h -19 z m 20,0 h 19 v 19 h -19 z m 20,0 h 19 v 19 h -19 z m 20,0 h 19 v 19 h -19 z m 20,0 h 19 v 19 h -19 z m 20,0 h 19 v 19 h -19 z m 20,0 h 19 v 19 h -19 z m 20,0 h 19 v 19 h -19 z m 20,0 h 19 v 19 h -19 z m 20,0 h 19 v 19 h -19 z m 20,0 h 19 v 19 h -19 z m 20,0 h 19 v 19 h -19 z m 20,0 h 19 v 19 h -19 z m 20,0 h 19 v 19 h -19 z m 20,0 h 19 v 19 h -19 z m 20,0 h 19 v 19 h -19 z m 20,0 h 19 v 19 h -19 z m 20,0 h 19 v 19 h -19 z m 20,0 h 19 v 19 h -19 z m 20,0 h 19 v 19 h -19 z m 20,0 h 19 v 19 h -19 z m 20,0 h 19 v 19 h -19 z m 20,0 h 19 v 19 h -19 z m 20,0 h 19 v 19 h -19 z m 20,0 h 19 v 19 h -19 z m 20,0 h 19 v 19 h -19 z m 20,0 h 19 v 19 h -19 z m 20,0 h 19 v 19 h -19 z m -720,20 h 19 v 18.999996 h -19 z m 20,0 h 19 v 18.999996 h -19 z m 20,0 h 19 v 18.999996 h -19 z m 20,0 h 19 v 18.999996 h -19 z m 20,0 h 19 v 18.999996 h -19 z m 20,0 h 19 v 18.999996 h -19 z m 20,0 h 19 v 18.999996 h -19 z m 20,0 h 19 v 18.999996 h -19 z m 20,0 h 19 v 18.999996 h -19 z m 20,0 h 19 v 18.999996 h -19 z m 20,0 h 19 v 18.999996 h -19 z m 20,0 h 19 v 18.999996 h -19 z m 20,0 h 19 v 18.999996 h -19 z m 20,0 h 19 v 18.999996 h -19 z m 20,0 h 19 v 18.999996 h -19 z m 20,0 h 19 v 18.999996 h -19 z m 20,0 h 19 v 18.999996 h -19 z m 20,0 h 19 v 18.999996 h -19 z m 20,0 h 19 v 18.999996 h -19 z m 20,0 h 19 v 18.999996 h -19 z m 20,0 h 19 v 18.999996 h -19 z m 20,0 h 19 v 18.999996 h -19 z m 20,0 h 19 v 18.999996 h -19 z m 20,0 h 19 v 18.999996 h -19 z m 20,0 h 19 v 18.999996 h -19 z m 20,0 h 19 v 18.999996 h -19 z m 20,0 h 19 v 18.999996 h -19 z m 20,0 h 19 v 18.999996 h -19 z m 20,0 h 19 v 18.999996 h -19 z m 20,0 h 19 v 18.999996 h -19 z m 20,0 h 19 v 18.999996 h -19 z m 20,0 h 19 v 18.999996 h -19 z m 20,0 h 19 v 18.999996 h -19 z m 20,0 h 19 v 18.999996 h -19 z m 20,0 h 19 v 18.999996 h -19 z m 20,0 h 19 v 18.999996 h -19 z m 20,0 h 19 v 18.999996 h -19 z m -720,19.999996 h 19 v 19 h -19 z m 20,0 h 19 v 19 h -19 z m 20,0 h 19 v 19 h -19 z m 20,0 h 19 v 19 h -19 z m 20,0 h 19 v 19 h -19 z m 20,0 h 19 v 19 h -19 z m 20,0 h 19 v 19 h -19 z m 20,0 h 19 v 19 h -19 z m 20,0 h 19 v 19 h -19 z m 20,0 h 19 v 19 h -19 z m 20,0 h 19 v 19 h -19 z m 20,0 h 19 v 19 h -19 z m 20,0 h 19 v 19 h -19 z m 20,0 h 19 v 19 h -19 z m 20,0 h 19 v 19 h -19 z m 20,0 h 19 v 19 h -19 z m 20,0 h 19 v 19 h -19 z m 20,0 h 19 v 19 h -19 z m 20,0 h 19 v 19 h -19 z m 20,0 h 19 v 19 h -19 z m 20,0 h 19 v 19 h -19 z m 20,0 h 19 v 19 h -19 z m 20,0 h 19 v 19 h -19 z m 20,0 h 19 v 19 h -19 z m 20,0 h 19 v 19 h -19 z m 20,0 h 19 v 19 h -19 z m 20,0 h 19 v 19 h -19 z m 20,0 h 19 v 19 h -19 z m 20,0 h 19 v 19 h -19 z m 20,0 h 19 v 19 h -19 z m 20,0 h 19 v 19 h -19 z m 20,0 h 19 v 19 h -19 z m 20,0 h 19 v 19 h -19 z m 20,0 h 19 v 19 h -19 z m 20,0 h 19 v 19 h -19 z m 20,0 h 19 v 19 h -19 z m 20,0 h 19 v 19 h -19 z m -720,20 h 19 v 19 h -19 z m 20,0 h 19 v 19 h -19 z m 20,0 h 19 v 19 h -19 z m 20,0 h 19 v 19 h -19 z m 20,0 h 19 v 19 h -19 z m 20,0 h 19 v 19 h -19 z m 20,0 h 19 v 19 h -19 z m 20,0 h 19 v 19 h -19 z m 20,0 h 19 v 19 h -19 z m 20,0 h 19 v 19 h -19 z m 20,0 h 19 v 19 h -19 z m 20,0 h 19 v 19 h -19 z m 20,0 h 19 v 19 h -19 z m 20,0 h 19 v 19 h -19 z m 20,0 h 19 v 19 h -19 z m 20,0 h 19 v 19 h -19 z m 20,0 h 19 v 19 h -19 z m 20,0 h 19 v 19 h -19 z m 20,0 h 19 v 19 h -19 z m 20,0 h 19 v 19 h -19 z m 20,0 h 19 v 19 h -19 z m 20,0 h 19 v 19 h -19 z m 20,0 h 19 v 19 h -19 z m 20,0 h 19 v 19 h -19 z m 20,0 h 19 v 19 h -19 z m 20,0 h 19 v 19 h -19 z m 20,0 h 19 v 19 h -19 z m 20,0 h 19 v 19 h -19 z m 20,0 h 19 v 19 h -19 z m 20,0 h 19 v 19 h -19 z m 20,0 h 19 v 19 h -19 z m 20,0 h 19 v 19 h -19 z m 20,0 h 19 v 19 h -19 z m 20,0 h 19 v 19 h -19 z m 20,0 h 19 v 19 h -19 z m 20,0 h 19 v 19 h -19 z m 20,0 h 19 v 19 h -19 z m -720,20 h 19 v 19 h -19 z m 20,0 h 19 v 19 h -19 z m 20,0 h 19 v 19 h -19 z m 20,0 h 19 v 19 h -19 z m 20,0 h 19 v 19 h -19 z m 20,0 h 19 v 19 h -19 z m 20,0 h 19 v 19 h -19 z m 20,0 h 19 v 19 h -19 z m 20,0 h 19 v 19 h -19 z m 20,0 h 19 v 19 h -19 z m 20,0 h 19 v 19 h -19 z m 20,0 h 19 v 19 h -19 z m 20,0 h 19 v 19 h -19 z m 20,0 h 19 v 19 h -19 z m 20,0 h 19 v 19 h -19 z m 20,0 h 19 v 19 h -19 z m 20,0 h 19 v 19 h -19 z m 20,0 h 19 v 19 h -19 z m 20,0 h 19 v 19 h -19 z m 20,0 h 19 v 19 h -19 z m 20,0 h 19 v 19 h -19 z m 20,0 h 19 v 19 h -19 z m 20,0 h 19 v 19 h -19 z m 20,0 h 19 v 19 h -19 z m 20,0 h 19 v 19 h -19 z m 20,0 h 19 v 19 h -19 z m 20,0 h 19 v 19 h -19 z m 20,0 h 19 v 19 h -19 z m 20,0 h 19 v 19 h -19 z m 20,0 h 19 v 19 h -19 z m 20,0 h 19 v 19 h -19 z m 20,0 h 19 v 19 h -19 z m 20,0 h 19 v 19 h -19 z m 20,0 h 19 v 19 h -19 z m 20,0 h 19 v 19 h -19 z m 20,0 h 19 v 19 h -19 z m 20,0 h 19 v 19 h -19 z m -720,20 h 19 v 19 h -19 z m 20,0 h 19 v 19 h -19 z m 20,0 h 19 v 19 h -19 z m 20,0 h 19 v 19 h -19 z m 20,0 h 19 v 19 h -19 z m 20,0 h 19 v 19 h -19 z m 20,0 h 19 v 19 h -19 z m 20,0 h 19 v 19 h -19 z m 20,0 h 19 v 19 h -19 z m 20,0 h 19 v 19 h -19 z m 20,0 h 19 v 19 h -19 z m 20,0 h 19 v 19 h -19 z m 20,0 h 19 v 19 h -19 z m 20,0 h 19 v 19 h -19 z m 20,0 h 19 v 19 h -19 z m 20,0 h 19 v 19 h -19 z m 20,0 h 19 v 19 h -19 z m 20,0 h 19 v 19 h -19 z m 20,0 h 19 v 19 h -19 z m 20,0 h 19 v 19 h -19 z m 20,0 h 19 v 19 h -19 z m 20,0 h 19 v 19 h -19 z m 20,0 h 19 v 19 h -19 z m 20,0 h 19 v 19 h -19 z m 20,0 h 19 v 19 h -19 z m 20,0 h 19 v 19 h -19 z m 20,0 h 19 v 19 h -19 z m 20,0 h 19 v 19 h -19 z m 20,0 h 19 v 19 h -19 z m 20,0 h 19 v 19 h -19 z m 20,0 h 19 v 19 h -19 z m 20,0 h 19 v 19 h -19 z m 20,0 h 19 v 19 h -19 z m 20,0 h 19 v 19 h -19 z m 20,0 h 19 v 19 h -19 z m 20,0 h 19 v 19 h -19 z m 20,0 h 19 v 19 h -19 z m -720,20 h 19 v 19 h -19 z m 20,0 h 19 v 19 h -19 z m 20,0 h 19 v 19 h -19 z m 20,0 h 19 v 19 h -19 z m 20,0 h 19 v 19 h -19 z m 20,0 h 19 v 19 h -19 z m 20,0 h 19 v 19 h -19 z m 20,0 h 19 v 19 h -19 z m 20,0 h 19 v 19 h -19 z m 20,0 h 19 v 19 h -19 z m 20,0 h 19 v 19 h -19 z m 20,0 h 19 v 19 h -19 z m 20,0 h 19 v 19 h -19 z m 20,0 h 19 v 19 h -19 z m 20,0 h 19 v 19 h -19 z m 20,0 h 19 v 19 h -19 z m 20,0 h 19 v 19 h -19 z m 20,0 h 19 v 19 h -19 z m 20,0 h 19 v 19 h -19 z m 20,0 h 19 v 19 h -19 z m 20,0 h 19 v 19 h -19 z m 20,0 h 19 v 19 h -19 z m 20,0 h 19 v 19 h -19 z m 20,0 h 19 v 19 h -19 z m 20,0 h 19 v 19 h -19 z m 20,0 h 19 v 19 h -19 z m 20,0 h 19 v 19 h -19 z m 20,0 h 19 v 19 h -19 z m 20,0 h 19 v 19 h -19 z m 20,0 h 19 v 19 h -19 z m 20,0 h 19 v 19 h -19 z m 20,0 h 19 v 19 h -19 z m 20,0 h 19 v 19 h -19 z m 20,0 h 19 v 19 h -19 z m 20,0 h 19 v 19 h -19 z m 20,0 h 19 v 19 h -19 z m 20,0 h 19 v 19 h -19 z m -720,20 h 19 v 19 h -19 z m 20,0 h 19 v 19 h -19 z m 20,0 h 19 v 19 h -19 z m 20,0 h 19 v 19 h -19 z m 20,0 h 19 v 19 h -19 z m 20,0 h 19 v 19 h -19 z m 20,0 h 19 v 19 h -19 z m 20,0 h 19 v 19 h -19 z m 20,0 h 19 v 19 h -19 z m 20,0 h 19 v 19 h -19 z m 20,0 h 19 v 19 h -19 z m 20,0 h 19 v 19 h -19 z m 20,0 h 19 v 19 h -19 z m 20,0 h 19 v 19 h -19 z m 20,0 h 19 v 19 h -19 z m 20,0 h 19 v 19 h -19 z m 20,0 h 19 v 19 h -19 z m 20,0 h 19 v 19 h -19 z m 20,0 h 19 v 19 h -19 z m 20,0 h 19 v 19 h -19 z m 20,0 h 19 v 19 h -19 z m 20,0 h 19 v 19 h -19 z m 20,0 h 19 v 19 h -19 z m 20,0 h 19 v 19 h -19 z m 20,0 h 19 v 19 h -19 z m 20,0 h 19 v 19 h -19 z m 20,0 h 19 v 19 h -19 z m 20,0 h 19 v 19 h -19 z m 20,0 h 19 v 19 h -19 z m 20,0 h 19 v 19 h -19 z m 20,0 h 19 v 19 h -19 z m 20,0 h 19 v 19 h -19 z m 20,0 h 19 v 19 h -19 z m 20,0 h 19 v 19 h -19 z m 20,0 h 19 v 19 h -19 z m 20,0 h 19 v 19 h -19 z m 20,0 h 19 v 19 h -19 z m -720,20 h 19 v 19 h -19 z m 20,0 h 19 v 19 h -19 z m 20,0 h 19 v 19 h -19 z m 20,0 h 19 v 19 h -19 z m 20,0 h 19 v 19 h -19 z m 20,0 h 19 v 19 h -19 z m 20,0 h 19 v 19 h -19 z m 20,0 h 19 v 19 h -19 z m 20,0 h 19 v 19 h -19 z m 20,0 h 19 v 19 h -19 z m 20,0 h 19 v 19 h -19 z m 20,0 h 19 v 19 h -19 z m 20,0 h 19 v 19 h -19 z m 20,0 h 19 v 19 h -19 z m 20,0 h 19 v 19 h -19 z m 20,0 h 19 v 19 h -19 z m 20,0 h 19 v 19 h -19 z m 20,0 h 19 v 19 h -19 z m 20,0 h 19 v 19 h -19 z m 20,0 h 19 v 19 h -19 z m 20,0 h 19 v 19 h -19 z m 20,0 h 19 v 19 h -19 z m 20,0 h 19 v 19 h -19 z m 20,0 h 19 v 19 h -19 z m 20,0 h 19 v 19 h -19 z m 20,0 h 19 v 19 h -19 z m 20,0 h 19 v 19 h -19 z m 20,0 h 19 v 19 h -19 z m 20,0 h 19 v 19 h -19 z m 20,0 h 19 v 19 h -19 z m 20,0 h 19 v 19 h -19 z m 20,0 h 19 v 19 h -19 z m 20,0 h 19 v 19 h -19 z m 20,0 h 19 v 19 h -19 z m 20,0 h 19 v 19 h -19 z m 20,0 h 19 v 19 h -19 z m 20,0 h 19 v 19 h -19 z m -720,20 h 19 v 19 h -19 z m 20,0 h 19 v 19 h -19 z m 20,0 h 19 v 19 h -19 z m 20,0 h 19 v 19 h -19 z m 20,0 h 19 v 19 h -19 z m 20,0 h 19 v 19 h -19 z m 20,0 h 19 v 19 h -19 z m 20,0 h 19 v 19 h -19 z m 20,0 h 19 v 19 h -19 z m 20,0 h 19 v 19 h -19 z m 20,0 h 19 v 19 h -19 z m 20,0 h 19 v 19 h -19 z m 20,0 h 19 v 19 h -19 z m 20,0 h 19 v 19 h -19 z m 20,0 h 19 v 19 h -19 z m 20,0 h 19 v 19 h -19 z m 20,0 h 19 v 19 h -19 z m 20,0 h 19 v 19 h -19 z m 20,0 h 19 v 19 h -19 z m 20,0 h 19 v 19 h -19 z m 20,0 h 19 v 19 h -19 z m 20,0 h 19 v 19 h -19 z m 20,0 h 19 v 19 h -19 z m 20,0 h 19 v 19 h -19 z m 20,0 h 19 v 19 h -19 z m 20,0 h 19 v 19 h -19 z m 20,0 h 19 v 19 h -19 z m 20,0 h 19 v 19 h -19 z m 20,0 h 19 v 19 h -19 z m 20,0 h 19 v 19 h -19 z m 20,0 h 19 v 19 h -19 z m 20,0 h 19 v 19 h -19 z m 20,0 h 19 v 19 h -19 z m 20,0 h 19 v 19 h -19 z m 20,0 h 19 v 19 h -19 z m 20,0 h 19 v 19 h -19 z m 20,0 h 19 v 19 h -19 z m -720,20 h 19 v 19 h -19 z m 20,0 h 19 v 19 h -19 z m 20,0 h 19 v 19 h -19 z m 20,0 h 19 v 19 h -19 z m 20,0 h 19 v 19 h -19 z m 20,0 h 19 v 19 h -19 z m 20,0 h 19 v 19 h -19 z m 20,0 h 19 v 19 h -19 z m 20,0 h 19 v 19 h -19 z m 20,0 h 19 v 19 h -19 z m 20,0 h 19 v 19 h -19 z m 20,0 h 19 v 19 h -19 z m 20,0 h 19 v 19 h -19 z m 20,0 h 19 v 19 h -19 z m 20,0 h 19 v 19 h -19 z m 20,0 h 19 v 19 h -19 z m 20,0 h 19 v 19 h -19 z m 20,0 h 19 v 19 h -19 z m 20,0 h 19 v 19 h -19 z m 20,0 h 19 v 19 h -19 z m 20,0 h 19 v 19 h -19 z m 20,0 h 19 v 19 h -19 z m 20,0 h 19 v 19 h -19 z m 20,0 h 19 v 19 h -19 z m 20,0 h 19 v 19 h -19 z m 20,0 h 19 v 19 h -19 z m 20,0 h 19 v 19 h -19 z m 20,0 h 19 v 19 h -19 z m 20,0 h 19 v 19 h -19 z m 20,0 h 19 v 19 h -19 z m 20,0 h 19 v 19 h -19 z m 20,0 h 19 v 19 h -19 z m 20,0 h 19 v 19 h -19 z m 20,0 h 19 v 19 h -19 z m 20,0 h 19 v 19 h -19 z m 20,0 h 19 v 19 h -19 z m 20,0 h 19 v 19 h -19 z m -720,20 h 19 v 19 h -19 z m 20,0 h 19 v 19 h -19 z m 20,0 h 19 v 19 h -19 z m 20,0 h 19 v 19 h -19 z m 20,0 h 19 v 19 h -19 z m 20,0 h 19 v 19 h -19 z m 20,0 h 19 v 19 h -19 z m 20,0 h 19 v 19 h -19 z m 20,0 h 19 v 19 h -19 z m 20,0 h 19 v 19 h -19 z m 20,0 h 19 v 19 h -19 z m 20,0 h 19 v 19 h -19 z m 20,0 h 19 v 19 h -19 z m 20,0 h 19 v 19 h -19 z m 20,0 h 19 v 19 h -19 z m 20,0 h 19 v 19 h -19 z m 20,0 h 19 v 19 h -19 z m 20,0 h 19 v 19 h -19 z m 20,0 h 19 v 19 h -19 z m 20,0 h 19 v 19 h -19 z m 20,0 h 19 v 19 h -19 z m 20,0 h 19 v 19 h -19 z m 20,0 h 19 v 19 h -19 z m 20,0 h 19 v 19 h -19 z m 20,0 h 19 v 19 h -19 z m 20,0 h 19 v 19 h -19 z m 20,0 h 19 v 19 h -19 z m 20,0 h 19 v 19 h -19 z m 20,0 h 19 v 19 h -19 z m 20,0 h 19 v 19 h -19 z m 20,0 h 19 v 19 h -19 z m 20,0 h 19 v 19 h -19 z m 20,0 h 19 v 19 h -19 z m 20,0 h 19 v 19 h -19 z m 20,0 h 19 v 19 h -19 z m 20,0 h 19 v 19 h -19 z m 20,0 h 19 v 19 h -19 z"
     id="path1121"
     inkscape:label="grid"
     inkscape:connector-curvature="0" />
</svg>
