<?xml version="1.0" encoding="UTF-8" standalone="no"?>
<!-- Created with Inkscape (http://www.inkscape.org/) -->

<svg
   xmlns:dc="http://purl.org/dc/elements/1.1/"
   xmlns:cc="http://creativecommons.org/ns#"
   xmlns:rdf="http://www.w3.org/1999/02/22-rdf-syntax-ns#"
   xmlns:svg="http://www.w3.org/2000/svg"
   xmlns="http://www.w3.org/2000/svg"
   xmlns:xlink="http://www.w3.org/1999/xlink"
   xmlns:sodipodi="http://sodipodi.sourceforge.net/DTD/sodipodi-0.dtd"
   xmlns:inkscape="http://www.inkscape.org/namespaces/inkscape"
   width="95.25mm"
   height="29.104166mm"
   viewBox="0 0 95.25 29.104166"
   version="1.1"
   id="svg8"
   inkscape:version="0.92.4 5da689c313, 2019-01-14"
   sodipodi:docname="screen1.svg"
   inkscape:export-filename="/home/denissalem/hd_storage/works/DStudio/DSANDGRAINS/mockup/screen1.svg.png"
   inkscape:export-xdpi="192"
   inkscape:export-ydpi="192">
  <defs
     id="defs2">
    <linearGradient
       id="linearGradient1243"
       inkscape:collect="always">
      <stop
         id="stop1239"
         offset="0"
         style="stop-color:#ffffff;stop-opacity:1" />
      <stop
         id="stop1241"
         offset="1"
         style="stop-color:#ffffff;stop-opacity:0" />
    </linearGradient>
    <linearGradient
       inkscape:collect="always"
       id="linearGradient944">
      <stop
         style="stop-color:#ffffff;stop-opacity:1"
         offset="0"
         id="stop940" />
      <stop
         style="stop-color:#000000;stop-opacity:1"
         offset="1"
         id="stop942" />
    </linearGradient>
    <linearGradient
       inkscape:collect="always"
       xlink:href="#linearGradient944"
       id="linearGradient946"
       x1="160.07292"
       y1="115.76042"
       x2="160.07292"
       y2="127.66667"
       gradientUnits="userSpaceOnUse"
       gradientTransform="translate(-1.0175859e-5,-2.9445311e-6)" />
    <filter
       inkscape:collect="always"
       style="color-interpolation-filters:sRGB"
       id="filter1004"
       x="-0.022764705"
       width="1.0455294"
       y="-0.08600001"
       height="1.1720001">
      <feGaussianBlur
         inkscape:collect="always"
         stdDeviation="0.85328111"
         id="feGaussianBlur1006" />
    </filter>
    <filter
       inkscape:collect="always"
       style="color-interpolation-filters:sRGB"
       id="filter1204"
       x="-0.01490902"
       width="1.0298181"
       y="-0.061501209"
       height="1.1230024">
      <feGaussianBlur
         inkscape:collect="always"
         stdDeviation="0.54239325"
         id="feGaussianBlur1206" />
    </filter>
    <linearGradient
       inkscape:collect="always"
       xlink:href="#linearGradient1243"
       id="linearGradient1237"
       gradientUnits="userSpaceOnUse"
       x1="116.41666"
       y1="111.79166"
       x2="201.08333"
       y2="130.3125" />
    <linearGradient
       inkscape:collect="always"
       xlink:href="#linearGradient1243"
       id="linearGradient845"
       gradientUnits="userSpaceOnUse"
       gradientTransform="translate(-1.0175859e-5,-2.9445311e-6)"
       x1="160.07292"
       y1="115.76042"
       x2="160.07292"
       y2="127.66667" />
  </defs>
  <sodipodi:namedview
     id="base"
     pagecolor="#ffffff"
     bordercolor="#666666"
     borderopacity="1.0"
     inkscape:pageopacity="0.0"
     inkscape:pageshadow="2"
     inkscape:zoom="2.8"
     inkscape:cx="145.58964"
     inkscape:cy="42.400228"
     inkscape:document-units="mm"
     inkscape:current-layer="layer1"
     showgrid="false"
     inkscape:window-width="1916"
     inkscape:window-height="1043"
     inkscape:window-x="0"
     inkscape:window-y="18"
     inkscape:window-maximized="0"
     inkscape:snap-global="true"
     fit-margin-top="0"
     fit-margin-left="0"
     fit-margin-right="0"
     fit-margin-bottom="0">
    <inkscape:grid
       type="xygrid"
       id="grid815"
       originx="-111.125"
       originy="-161.39581" />
  </sodipodi:namedview>
  <metadata
     id="metadata5">
    <rdf:RDF>
      <cc:Work
         rdf:about="">
        <dc:format>image/svg+xml</dc:format>
        <dc:type
           rdf:resource="http://purl.org/dc/dcmitype/StillImage" />
        <dc:title />
      </cc:Work>
    </rdf:RDF>
  </metadata>
  <g
     inkscape:label="Calque 1"
     inkscape:groupmode="layer"
     id="layer1"
     transform="translate(-111.125,-106.5)"
     style="opacity:1">
    <rect
       style="display:inline;opacity:1;fill:#c2c2c2;fill-opacity:1;stroke:none;stroke-width:5.69230795;stroke-linecap:butt;stroke-linejoin:round;stroke-miterlimit:4;stroke-dasharray:none;stroke-dashoffset:0;stroke-opacity:0.85375492"
       id="rect817"
       width="95.25"
       height="29.104166"
       x="111.125"
       y="106.5"
       inkscape:label="background"
       sodipodi:insensitive="true" />
    <rect
       style="display:inline;opacity:0.4;fill:url(#linearGradient946);fill-opacity:1;stroke:none;stroke-width:10;stroke-linecap:butt;stroke-linejoin:round;stroke-miterlimit:4;stroke-dasharray:none;stroke-dashoffset:0;stroke-opacity:0.85375492;filter:url(#filter1004)"
       id="rect900-6"
       width="89.958321"
       height="23.812494"
       x="113.77084"
       y="109.14584"
       inkscape:label="shadow"
       sodipodi:insensitive="true" />
    <rect
       style="display:inline;opacity:0.4;fill:url(#linearGradient845);fill-opacity:1;stroke:none;stroke-width:10;stroke-linecap:butt;stroke-linejoin:round;stroke-miterlimit:4;stroke-dasharray:none;stroke-dashoffset:0;stroke-opacity:0.85375492;filter:url(#filter1004)"
       id="rect847"
       width="89.958321"
       height="23.812494"
       x="113.77084"
       y="109.14584"
       inkscape:label="LIGHT"
       sodipodi:insensitive="true" />
    <rect
       sodipodi:insensitive="true"
       inkscape:label="LIGHT"
       y="109.14584"
       x="113.77084"
       height="23.812494"
       width="89.958321"
       id="rect843"
       style="display:inline;opacity:0.4;fill:url(#linearGradient845);fill-opacity:1;stroke:none;stroke-width:10;stroke-linecap:butt;stroke-linejoin:round;stroke-miterlimit:4;stroke-dasharray:none;stroke-dashoffset:0;stroke-opacity:0.85375492;filter:url(#filter1004)" />
    <rect
       style="display:inline;opacity:1;fill:#101010;fill-opacity:1;stroke:none;stroke-width:10;stroke-linecap:butt;stroke-linejoin:round;stroke-miterlimit:4;stroke-dasharray:none;stroke-dashoffset:0;stroke-opacity:0.85375492"
       id="rect900"
       width="87.3125"
       height="21.166666"
       x="115.09375"
       y="110.46875"
       inkscape:label="screen"
       sodipodi:insensitive="true" />
    <path
       style="opacity:0.06199999;fill:url(#linearGradient1237);fill-opacity:1;fill-rule:evenodd;stroke:none;stroke-width:0.26458332px;stroke-linecap:butt;stroke-linejoin:miter;stroke-opacity:1"
       d="m 115.09375,131.63542 13.29479,-5.3e-4 c 25.7747,-11.84626 49.98222,-13.14923 74.0177,-13.2948 l 1e-5,-7.87131 -87.3125,-3e-5 c 0.0668,0 0,21.1667 0,21.1667 z"
       id="path1227"
       inkscape:connector-curvature="0"
       sodipodi:nodetypes="ccccccc"
       inkscape:label="reflection" />
    <path
       style="color:#000000;font-style:normal;font-variant:normal;font-weight:normal;font-stretch:normal;font-size:medium;line-height:normal;font-family:sans-serif;font-variant-ligatures:normal;font-variant-position:normal;font-variant-caps:normal;font-variant-numeric:normal;font-variant-alternates:normal;font-feature-settings:normal;text-indent:0;text-align:start;text-decoration:none;text-decoration-line:none;text-decoration-style:solid;text-decoration-color:#000000;letter-spacing:normal;word-spacing:normal;text-transform:none;writing-mode:lr-tb;direction:ltr;text-orientation:mixed;dominant-baseline:auto;baseline-shift:baseline;text-anchor:start;white-space:normal;shape-padding:0;clip-rule:nonzero;display:inline;overflow:visible;visibility:visible;opacity:0.25;isolation:auto;mix-blend-mode:normal;color-interpolation:sRGB;color-interpolation-filters:linearRGB;solid-color:#000000;solid-opacity:1;vector-effect:none;fill:#ff8800;fill-opacity:1;fill-rule:evenodd;stroke:none;stroke-width:0.50000006;stroke-linecap:butt;stroke-linejoin:miter;stroke-miterlimit:4;stroke-dasharray:none;stroke-dashoffset:0;stroke-opacity:1;color-rendering:auto;image-rendering:auto;shape-rendering:auto;text-rendering:auto;enable-background:accumulate"
       d="m 444.75195,417.51953 v 9.75195 H 435 v 0.50196 h 9.75195 v 9.49218 H 435 v 0.50196 h 9.75195 v 9.50195 H 435 v 0.50195 h 9.75195 v 9.5 H 435 v 0.50196 h 9.75195 v 9.49218 H 435 v 0.50196 h 9.75195 v 9.50195 H 435 v 0.50195 h 9.75195 v 9.5 H 435 v 0.50196 h 9.75195 v 9.74414 h 0.50196 v -9.74414 h 9.49218 v 9.74414 h 0.50196 v -9.74414 h 9.5 v 9.74414 h 0.5039 v -9.74414 h 9.5 v 9.74414 h 0.50196 v -9.74414 h 9.49218 v 9.74414 h 0.50196 v -9.74414 h 9.5 v 9.74414 h 0.5039 v -9.74414 h 9.5 v 9.74414 h 0.50196 v -9.74414 h 9.49218 v 9.74414 h 0.50196 v -9.74414 h 9.5 v 9.74414 h 0.5039 v -9.74414 h 9.5 v 9.74414 h 0.50196 v -9.74414 h 9.49218 v 9.74414 h 0.50196 v -9.74414 h 9.5 v 9.74414 h 0.5039 v -9.74414 h 9.5 v 9.74414 h 0.50196 v -9.74414 h 9.49218 v 9.74414 h 0.50196 v -9.74414 h 9.5 v 9.74414 h 0.5039 v -9.74414 h 9.5 v 9.74414 h 0.50196 v -9.74414 h 9.49218 v 9.74414 h 0.50196 v -9.74414 h 9.5 v 9.74414 h 0.5039 v -9.74414 h 9.5 v 9.74414 h 0.50196 v -9.74414 h 9.49218 v 9.74414 h 0.50196 v -9.74414 h 9.5 v 9.74414 h 0.5039 v -9.74414 h 9.5 v 9.74414 h 0.50196 v -9.74414 h 9.49218 v 9.74414 h 0.50196 v -9.74414 h 9.5 v 9.74414 h 0.5039 v -9.74414 h 9.5 v 9.74414 h 0.50196 v -9.74414 h 9.49218 v 9.74414 h 0.50196 v -9.74414 h 9.5 v 9.74414 h 0.5039 v -9.74414 h 9.5 v 9.74414 h 0.50196 v -9.74414 h 9.49218 v 9.74414 h 0.50196 v -9.74414 h 9.5 v 9.74414 h 0.5039 v -9.74414 h 9.5 v 9.74414 h 0.50196 v -9.74414 h 9.49218 v 9.74414 h 0.50196 v -9.74414 H 765 v -0.50196 h -9.75195 v -9.5 H 765 v -0.50195 h -9.75195 v -9.50195 H 765 v -0.50196 h -9.75195 v -9.49218 H 765 v -0.50196 h -9.75195 v -9.5 H 765 v -0.50195 h -9.75195 v -9.50195 H 765 v -0.50196 h -9.75195 v -9.49218 H 765 v -0.50196 h -9.75195 v -9.75195 h -0.50196 v 9.75195 h -9.49218 v -9.75195 h -0.50196 v 9.75195 h -9.5 v -9.75195 h -0.5039 v 9.75195 h -9.5 v -9.75195 h -0.50196 v 9.75195 h -9.49218 v -9.75195 h -0.50196 v 9.75195 h -9.5 v -9.75195 h -0.5039 v 9.75195 h -9.5 v -9.75195 h -0.50196 v 9.75195 h -9.49218 v -9.75195 h -0.50196 v 9.75195 h -9.5 v -9.75195 h -0.5039 v 9.75195 h -9.5 v -9.75195 h -0.50196 v 9.75195 h -9.49218 v -9.75195 h -0.50196 v 9.75195 h -9.5 v -9.75195 h -0.5039 v 9.75195 h -9.5 v -9.75195 h -0.50196 v 9.75195 h -9.49218 v -9.75195 h -0.50196 v 9.75195 h -9.5 v -9.75195 h -0.5039 v 9.75195 h -9.5 v -9.75195 h -0.50196 v 9.75195 h -9.49218 v -9.75195 h -0.50196 v 9.75195 h -9.5 v -9.75195 h -0.5039 v 9.75195 h -9.5 v -9.75195 h -0.50196 v 9.75195 h -9.49218 v -9.75195 h -0.50196 v 9.75195 h -9.5 v -9.75195 h -0.5039 v 9.75195 h -9.5 v -9.75195 h -0.50196 v 9.75195 h -9.49218 v -9.75195 h -0.50196 v 9.75195 h -9.5 v -9.75195 h -0.5039 v 9.75195 h -9.5 v -9.75195 h -0.50196 v 9.75195 h -9.49218 v -9.75195 h -0.50196 v 9.75195 h -9.5 v -9.75195 h -0.5039 v 9.75195 h -9.5 v -9.75195 h -0.50196 v 9.75195 h -9.49218 v -9.75195 h -0.50196 v 9.75195 h -9.5 v -9.75195 h -0.5039 v 9.75195 h -9.5 v -9.75195 h -0.50196 v 9.75195 h -9.49218 v -9.75195 z m 0.50196,10.25391 h 9.49218 v 9.49218 h -9.49218 z m 9.99414,0 h 9.5 v 9.49218 h -9.5 z m 10.0039,0 h 9.5 v 9.49218 h -9.5 z m 10.00196,0 h 9.49218 v 9.49218 h -9.49218 z m 9.99414,0 h 9.5 v 9.49218 h -9.5 z m 10.0039,0 h 9.5 v 9.49218 h -9.5 z m 10.00196,0 h 9.49218 v 9.49218 h -9.49218 z m 9.99414,0 h 9.5 v 9.49218 h -9.5 z m 10.0039,0 h 9.5 v 9.49218 h -9.5 z m 10.00196,0 h 9.49218 v 9.49218 h -9.49218 z m 9.99414,0 h 9.5 v 9.49218 h -9.5 z m 10.0039,0 h 9.5 v 9.49218 h -9.5 z m 10.00196,0 h 9.49218 v 9.49218 h -9.49218 z m 9.99414,0 h 9.5 v 9.49218 h -9.5 z m 10.0039,0 h 9.5 v 9.49218 h -9.5 z m 10.00196,0 h 9.49218 v 9.49218 h -9.49218 z m 9.99414,0 h 9.5 v 9.49218 h -9.5 z m 10.0039,0 h 9.5 v 9.49218 h -9.5 z m 10.00196,0 h 9.49218 v 9.49218 h -9.49218 z m 9.99414,0 h 9.5 v 9.49218 h -9.5 z m 10.0039,0 h 9.5 v 9.49218 h -9.5 z m 10.00196,0 h 9.49218 v 9.49218 h -9.49218 z m 9.99414,0 h 9.5 v 9.49218 h -9.5 z m 10.0039,0 h 9.5 v 9.49218 h -9.5 z m 10.00196,0 h 9.49218 v 9.49218 h -9.49218 z m 9.99414,0 h 9.5 v 9.49218 h -9.5 z m 10.0039,0 h 9.5 v 9.49218 h -9.5 z m 10.00196,0 h 9.49218 v 9.49218 h -9.49218 z m 9.99414,0 h 9.5 v 9.49218 h -9.5 z m 10.0039,0 h 9.5 v 9.49218 h -9.5 z m 10.00196,0 h 9.49218 v 9.49218 h -9.49218 z m -300,9.99414 h 9.49218 v 9.50195 h -9.49218 z m 9.99414,0 h 9.5 v 9.50195 h -9.5 z m 10.0039,0 h 9.5 v 9.50195 h -9.5 z m 10.00196,0 h 9.49218 v 9.50195 h -9.49218 z m 9.99414,0 h 9.5 v 9.50195 h -9.5 z m 10.0039,0 h 9.5 v 9.50195 h -9.5 z m 10.00196,0 h 9.49218 v 9.50195 h -9.49218 z m 9.99414,0 h 9.5 v 9.50195 h -9.5 z m 10.0039,0 h 9.5 v 9.50195 h -9.5 z m 10.00196,0 h 9.49218 v 9.50195 h -9.49218 z m 9.99414,0 h 9.5 v 9.50195 h -9.5 z m 10.0039,0 h 9.5 v 9.50195 h -9.5 z m 10.00196,0 h 9.49218 v 9.50195 h -9.49218 z m 9.99414,0 h 9.5 v 9.50195 h -9.5 z m 10.0039,0 h 9.5 v 9.50195 h -9.5 z m 10.00196,0 h 9.49218 v 9.50195 h -9.49218 z m 9.99414,0 h 9.5 v 9.50195 h -9.5 z m 10.0039,0 h 9.5 v 9.50195 h -9.5 z m 10.00196,0 h 9.49218 v 9.50195 h -9.49218 z m 9.99414,0 h 9.5 v 9.50195 h -9.5 z m 10.0039,0 h 9.5 v 9.50195 h -9.5 z m 10.00196,0 h 9.49218 v 9.50195 h -9.49218 z m 9.99414,0 h 9.5 v 9.50195 h -9.5 z m 10.0039,0 h 9.5 v 9.50195 h -9.5 z m 10.00196,0 h 9.49218 v 9.50195 h -9.49218 z m 9.99414,0 h 9.5 v 9.50195 h -9.5 z m 10.0039,0 h 9.5 v 9.50195 h -9.5 z m 10.00196,0 h 9.49218 v 9.50195 h -9.49218 z m 9.99414,0 h 9.5 v 9.50195 h -9.5 z m 10.0039,0 h 9.5 v 9.50195 h -9.5 z m 10.00196,0 h 9.49218 v 9.50195 h -9.49218 z m -300,10.0039 h 9.49218 v 9.5 h -9.49218 z m 9.99414,0 h 9.5 v 9.5 h -9.5 z m 10.0039,0 h 9.5 v 9.5 h -9.5 z m 10.00196,0 h 9.49218 v 9.5 h -9.49218 z m 9.99414,0 h 9.5 v 9.5 h -9.5 z m 10.0039,0 h 9.5 v 9.5 h -9.5 z m 10.00196,0 h 9.49218 v 9.5 h -9.49218 z m 9.99414,0 h 9.5 v 9.5 h -9.5 z m 10.0039,0 h 9.5 v 9.5 h -9.5 z m 10.00196,0 h 9.49218 v 9.5 h -9.49218 z m 9.99414,0 h 9.5 v 9.5 h -9.5 z m 10.0039,0 h 9.5 v 9.5 h -9.5 z m 10.00196,0 h 9.49218 v 9.5 h -9.49218 z m 9.99414,0 h 9.5 v 9.5 h -9.5 z m 10.0039,0 h 9.5 v 9.5 h -9.5 z m 10.00196,0 h 9.49218 v 9.5 h -9.49218 z m 9.99414,0 h 9.5 v 9.5 h -9.5 z m 10.0039,0 h 9.5 v 9.5 h -9.5 z m 10.00196,0 h 9.49218 v 9.5 h -9.49218 z m 9.99414,0 h 9.5 v 9.5 h -9.5 z m 10.0039,0 h 9.5 v 9.5 h -9.5 z m 10.00196,0 h 9.49218 v 9.5 h -9.49218 z m 9.99414,0 h 9.5 v 9.5 h -9.5 z m 10.0039,0 h 9.5 v 9.5 h -9.5 z m 10.00196,0 h 9.49218 v 9.5 h -9.49218 z m 9.99414,0 h 9.5 v 9.5 h -9.5 z m 10.0039,0 h 9.5 v 9.5 h -9.5 z m 10.00196,0 h 9.49218 v 9.5 h -9.49218 z m 9.99414,0 h 9.5 v 9.5 h -9.5 z m 10.0039,0 h 9.5 v 9.5 h -9.5 z m 10.00196,0 h 9.49218 v 9.5 h -9.49218 z m -300,10.00196 h 9.49218 v 9.49218 h -9.49218 z m 9.99414,0 h 9.5 v 9.49218 h -9.5 z m 10.0039,0 h 9.5 v 9.49218 h -9.5 z m 10.00196,0 h 9.49218 v 9.49218 h -9.49218 z m 9.99414,0 h 9.5 v 9.49218 h -9.5 z m 10.0039,0 h 9.5 v 9.49218 h -9.5 z m 10.00196,0 h 9.49218 v 9.49218 h -9.49218 z m 9.99414,0 h 9.5 v 9.49218 h -9.5 z m 10.0039,0 h 9.5 v 9.49218 h -9.5 z m 10.00196,0 h 9.49218 v 9.49218 h -9.49218 z m 9.99414,0 h 9.5 v 9.49218 h -9.5 z m 10.0039,0 h 9.5 v 9.49218 h -9.5 z m 10.00196,0 h 9.49218 v 9.49218 h -9.49218 z m 9.99414,0 h 9.5 v 9.49218 h -9.5 z m 10.0039,0 h 9.5 v 9.49218 h -9.5 z m 10.00196,0 h 9.49218 v 9.49218 h -9.49218 z m 9.99414,0 h 9.5 v 9.49218 h -9.5 z m 10.0039,0 h 9.5 v 9.49218 h -9.5 z m 10.00196,0 h 9.49218 v 9.49218 h -9.49218 z m 9.99414,0 h 9.5 v 9.49218 h -9.5 z m 10.0039,0 h 9.5 v 9.49218 h -9.5 z m 10.00196,0 h 9.49218 v 9.49218 h -9.49218 z m 9.99414,0 h 9.5 v 9.49218 h -9.5 z m 10.0039,0 h 9.5 v 9.49218 h -9.5 z m 10.00196,0 h 9.49218 v 9.49218 h -9.49218 z m 9.99414,0 h 9.5 v 9.49218 h -9.5 z m 10.0039,0 h 9.5 v 9.49218 h -9.5 z m 10.00196,0 h 9.49218 v 9.49218 h -9.49218 z m 9.99414,0 h 9.5 v 9.49218 h -9.5 z m 10.0039,0 h 9.5 v 9.49218 h -9.5 z m 10.00196,0 h 9.49218 v 9.49218 h -9.49218 z m -300,9.99414 h 9.49218 v 9.50195 h -9.49218 z m 9.99414,0 h 9.5 v 9.50195 h -9.5 z m 10.0039,0 h 9.5 v 9.50195 h -9.5 z m 10.00196,0 h 9.49218 v 9.50195 h -9.49218 z m 9.99414,0 h 9.5 v 9.50195 h -9.5 z m 10.0039,0 h 9.5 v 9.50195 h -9.5 z m 10.00196,0 h 9.49218 v 9.50195 h -9.49218 z m 9.99414,0 h 9.5 v 9.50195 h -9.5 z m 10.0039,0 h 9.5 v 9.50195 h -9.5 z m 10.00196,0 h 9.49218 v 9.50195 h -9.49218 z m 9.99414,0 h 9.5 v 9.50195 h -9.5 z m 10.0039,0 h 9.5 v 9.50195 h -9.5 z m 10.00196,0 h 9.49218 v 9.50195 h -9.49218 z m 9.99414,0 h 9.5 v 9.50195 h -9.5 z m 10.0039,0 h 9.5 v 9.50195 h -9.5 z m 10.00196,0 h 9.49218 v 9.50195 h -9.49218 z m 9.99414,0 h 9.5 v 9.50195 h -9.5 z m 10.0039,0 h 9.5 v 9.50195 h -9.5 z m 10.00196,0 h 9.49218 v 9.50195 h -9.49218 z m 9.99414,0 h 9.5 v 9.50195 h -9.5 z m 10.0039,0 h 9.5 v 9.50195 h -9.5 z m 10.00196,0 h 9.49218 v 9.50195 h -9.49218 z m 9.99414,0 h 9.5 v 9.50195 h -9.5 z m 10.0039,0 h 9.5 v 9.50195 h -9.5 z m 10.00196,0 h 9.49218 v 9.50195 h -9.49218 z m 9.99414,0 h 9.5 v 9.50195 h -9.5 z m 10.0039,0 h 9.5 v 9.50195 h -9.5 z m 10.00196,0 h 9.49218 v 9.50195 h -9.49218 z m 9.99414,0 h 9.5 v 9.50195 h -9.5 z m 10.0039,0 h 9.5 v 9.50195 h -9.5 z m 10.00196,0 h 9.49218 v 9.50195 h -9.49218 z m -300,10.0039 h 9.49218 v 9.5 h -9.49218 z m 9.99414,0 h 9.5 v 9.5 h -9.5 z m 10.0039,0 h 9.5 v 9.5 h -9.5 z m 10.00196,0 h 9.49218 v 9.5 h -9.49218 z m 9.99414,0 h 9.5 v 9.5 h -9.5 z m 10.0039,0 h 9.5 v 9.5 h -9.5 z m 10.00196,0 h 9.49218 v 9.5 h -9.49218 z m 9.99414,0 h 9.5 v 9.5 h -9.5 z m 10.0039,0 h 9.5 v 9.5 h -9.5 z m 10.00196,0 h 9.49218 v 9.5 h -9.49218 z m 9.99414,0 h 9.5 v 9.5 h -9.5 z m 10.0039,0 h 9.5 v 9.5 h -9.5 z m 10.00196,0 h 9.49218 v 9.5 h -9.49218 z m 9.99414,0 h 9.5 v 9.5 h -9.5 z m 10.0039,0 h 9.5 v 9.5 h -9.5 z m 10.00196,0 h 9.49218 v 9.5 h -9.49218 z m 9.99414,0 h 9.5 v 9.5 h -9.5 z m 10.0039,0 h 9.5 v 9.5 h -9.5 z m 10.00196,0 h 9.49218 v 9.5 h -9.49218 z m 9.99414,0 h 9.5 v 9.5 h -9.5 z m 10.0039,0 h 9.5 v 9.5 h -9.5 z m 10.00196,0 h 9.49218 v 9.5 h -9.49218 z m 9.99414,0 h 9.5 v 9.5 h -9.5 z m 10.0039,0 h 9.5 v 9.5 h -9.5 z m 10.00196,0 h 9.49218 v 9.5 h -9.49218 z m 9.99414,0 h 9.5 v 9.5 h -9.5 z m 10.0039,0 h 9.5 v 9.5 h -9.5 z m 10.00196,0 h 9.49218 v 9.5 h -9.49218 z m 9.99414,0 h 9.5 v 9.5 h -9.5 z m 10.0039,0 h 9.5 v 9.5 h -9.5 z m 10.00196,0 h 9.49218 v 9.5 h -9.49218 z"
       transform="scale(0.26458333)"
       id="path1029"
       inkscape:connector-curvature="0"
       inkscape:label="grid"
       sodipodi:insensitive="true" />
    <path
       style="color:#000000;font-style:normal;font-variant:normal;font-weight:normal;font-stretch:normal;font-size:medium;line-height:normal;font-family:sans-serif;font-variant-ligatures:normal;font-variant-position:normal;font-variant-caps:normal;font-variant-numeric:normal;font-variant-alternates:normal;font-feature-settings:normal;text-indent:0;text-align:start;text-decoration:none;text-decoration-line:none;text-decoration-style:solid;text-decoration-color:#000000;letter-spacing:normal;word-spacing:normal;text-transform:none;writing-mode:lr-tb;direction:ltr;text-orientation:mixed;dominant-baseline:auto;baseline-shift:baseline;text-anchor:start;white-space:normal;shape-padding:0;clip-rule:nonzero;display:inline;overflow:visible;visibility:visible;opacity:0.32999998;isolation:auto;mix-blend-mode:normal;color-interpolation:sRGB;color-interpolation-filters:linearRGB;solid-color:#000000;solid-opacity:1;vector-effect:none;fill:#ff8800;fill-opacity:1;fill-rule:evenodd;stroke:none;stroke-width:0.13229169;stroke-linecap:butt;stroke-linejoin:miter;stroke-miterlimit:4;stroke-dasharray:none;stroke-dashoffset:0;stroke-opacity:1;filter:url(#filter1204);color-rendering:auto;image-rendering:auto;shape-rendering:auto;text-rendering:auto;enable-background:accumulate"
       d="m 117.67395,110.46871 v 2.5802 h -2.5802 v 0.13281 h 2.5802 v 2.51147 h -2.5802 v 0.13281 h 2.5802 v 2.51406 h -2.5802 v 0.13281 h 2.5802 v 2.51354 h -2.5802 v 0.13281 h 2.5802 v 2.51147 h -2.5802 v 0.13281 h 2.5802 v 2.51406 h -2.5802 v 0.13281 h 2.5802 v 2.51354 h -2.5802 v 0.13281 h 2.5802 v 2.57814 h 0.13281 v -2.57814 h 2.51147 v 2.57814 h 0.13281 v -2.57814 h 2.51355 v 2.57814 h 0.13332 v -2.57814 h 2.51354 v 2.57814 h 0.13281 v -2.57814 h 2.51147 v 2.57814 h 0.13281 v -2.57814 h 2.51355 v 2.57814 h 0.13332 v -2.57814 h 2.51354 v 2.57814 h 0.13281 v -2.57814 h 2.51147 v 2.57814 h 0.13281 v -2.57814 h 2.51355 v 2.57814 h 0.13332 v -2.57814 h 2.51354 v 2.57814 h 0.13281 v -2.57814 h 2.51147 v 2.57814 h 0.13281 v -2.57814 h 2.51355 v 2.57814 h 0.13332 v -2.57814 h 2.51354 v 2.57814 h 0.13281 v -2.57814 h 2.51147 v 2.57814 h 0.13281 v -2.57814 h 2.51355 v 2.57814 h 0.13332 v -2.57814 h 2.51354 v 2.57814 h 0.13281 v -2.57814 h 2.51147 v 2.57814 h 0.13281 v -2.57814 h 2.51355 v 2.57814 h 0.13332 v -2.57814 h 2.51354 v 2.57814 h 0.13281 v -2.57814 h 2.51147 v 2.57814 h 0.13281 v -2.57814 h 2.51355 v 2.57814 h 0.13332 v -2.57814 h 2.51354 v 2.57814 h 0.13281 v -2.57814 h 2.51147 v 2.57814 h 0.13281 v -2.57814 h 2.51355 v 2.57814 h 0.13332 v -2.57814 h 2.51354 v 2.57814 h 0.13281 v -2.57814 h 2.51147 v 2.57814 h 0.13281 v -2.57814 h 2.51355 v 2.57814 h 0.13332 v -2.57814 h 2.51354 v 2.57814 h 0.13281 v -2.57814 h 2.51147 v 2.57814 h 0.13281 v -2.57814 h 2.51355 v 2.57814 h 0.13332 v -2.57814 h 2.51354 v 2.57814 h 0.13281 v -2.57814 h 2.51147 v 2.57814 h 0.13281 v -2.57814 h 2.58021 v -0.13281 h -2.58021 v -2.51354 h 2.58021 v -0.13281 h -2.58021 v -2.51406 h 2.58021 v -0.13281 h -2.58021 v -2.51147 h 2.58021 v -0.13281 h -2.58021 v -2.51354 h 2.58021 v -0.13281 h -2.58021 V 115.826 h 2.58021 v -0.13281 h -2.58021 v -2.51147 h 2.58021 v -0.13281 h -2.58021 v -2.5802 h -0.13281 v 2.5802 h -2.51147 v -2.5802 h -0.13281 v 2.5802 h -2.51354 v -2.5802 h -0.13332 v 2.5802 h -2.51355 v -2.5802 h -0.13281 v 2.5802 h -2.51147 v -2.5802 h -0.13281 v 2.5802 h -2.51354 v -2.5802 h -0.13332 v 2.5802 h -2.51355 v -2.5802 h -0.13281 v 2.5802 h -2.51147 v -2.5802 h -0.13281 v 2.5802 h -2.51354 v -2.5802 h -0.13332 v 2.5802 h -2.51355 v -2.5802 h -0.13281 v 2.5802 h -2.51147 v -2.5802 h -0.13281 v 2.5802 h -2.51354 v -2.5802 h -0.13332 v 2.5802 h -2.51355 v -2.5802 h -0.13281 v 2.5802 h -2.51147 v -2.5802 h -0.13281 v 2.5802 h -2.51354 v -2.5802 h -0.13332 v 2.5802 h -2.51355 v -2.5802 h -0.13281 v 2.5802 h -2.51147 v -2.5802 h -0.13281 v 2.5802 h -2.51354 v -2.5802 h -0.13332 v 2.5802 h -2.51355 v -2.5802 h -0.13281 v 2.5802 h -2.51147 v -2.5802 h -0.13281 v 2.5802 h -2.51354 v -2.5802 h -0.13332 v 2.5802 h -2.51355 v -2.5802 h -0.13281 v 2.5802 h -2.51147 v -2.5802 h -0.13281 v 2.5802 h -2.51354 v -2.5802 h -0.13332 v 2.5802 h -2.51355 v -2.5802 h -0.13281 v 2.5802 h -2.51147 v -2.5802 h -0.13281 v 2.5802 h -2.51354 v -2.5802 h -0.13332 v 2.5802 h -2.51355 v -2.5802 h -0.13281 v 2.5802 h -2.51147 v -2.5802 h -0.13281 v 2.5802 h -2.51354 v -2.5802 h -0.13332 v 2.5802 h -2.51355 v -2.5802 h -0.13281 v 2.5802 h -2.51147 v -2.5802 z m 0.13281,2.71301 h 2.51147 v 2.51147 h -2.51147 z m 2.64428,0 h 2.51355 v 2.51147 h -2.51355 z m 2.64687,0 h 2.51354 v 2.51147 h -2.51354 z m 2.64635,0 h 2.51147 v 2.51147 h -2.51147 z m 2.64428,0 h 2.51355 v 2.51147 h -2.51355 z m 2.64687,0 h 2.51354 v 2.51147 h -2.51354 z m 2.64635,0 h 2.51147 v 2.51147 h -2.51147 z m 2.64428,0 h 2.51355 v 2.51147 h -2.51355 z m 2.64687,0 h 2.51354 v 2.51147 h -2.51354 z m 2.64635,0 h 2.51147 v 2.51147 h -2.51147 z m 2.64428,0 h 2.51355 v 2.51147 h -2.51355 z m 2.64687,0 h 2.51354 v 2.51147 h -2.51354 z m 2.64635,0 h 2.51147 v 2.51147 h -2.51147 z m 2.64428,0 h 2.51355 v 2.51147 h -2.51355 z m 2.64687,0 h 2.51354 v 2.51147 h -2.51354 z m 2.64635,0 h 2.51147 v 2.51147 h -2.51147 z m 2.64428,0 h 2.51355 v 2.51147 h -2.51355 z m 2.64687,0 h 2.51354 v 2.51147 h -2.51354 z m 2.64635,0 h 2.51147 v 2.51147 h -2.51147 z m 2.64428,0 h 2.51355 v 2.51147 h -2.51355 z m 2.64687,0 h 2.51354 v 2.51147 h -2.51354 z m 2.64635,0 h 2.51147 v 2.51147 h -2.51147 z m 2.64428,0 h 2.51355 v 2.51147 h -2.51355 z m 2.64687,0 h 2.51354 v 2.51147 h -2.51354 z m 2.64635,0 h 2.51147 v 2.51147 h -2.51147 z m 2.64428,0 h 2.51355 v 2.51147 h -2.51355 z m 2.64687,0 h 2.51354 v 2.51147 h -2.51354 z m 2.64635,0 h 2.51147 v 2.51147 h -2.51147 z m 2.64428,0 h 2.51355 v 2.51147 h -2.51355 z m 2.64687,0 h 2.51354 v 2.51147 h -2.51354 z m 2.64635,0 h 2.51147 v 2.51147 h -2.51147 z m -79.375,2.64428 h 2.51147 v 2.51406 h -2.51147 z m 2.64428,0 h 2.51355 v 2.51406 h -2.51355 z m 2.64687,0 h 2.51354 v 2.51406 h -2.51354 z m 2.64635,0 h 2.51147 v 2.51406 h -2.51147 z m 2.64428,0 h 2.51355 v 2.51406 h -2.51355 z m 2.64687,0 h 2.51354 v 2.51406 h -2.51354 z m 2.64635,0 h 2.51147 v 2.51406 h -2.51147 z m 2.64428,0 h 2.51355 v 2.51406 h -2.51355 z m 2.64687,0 h 2.51354 v 2.51406 h -2.51354 z m 2.64635,0 h 2.51147 v 2.51406 h -2.51147 z m 2.64428,0 h 2.51355 v 2.51406 h -2.51355 z m 2.64687,0 h 2.51354 v 2.51406 h -2.51354 z m 2.64635,0 h 2.51147 v 2.51406 h -2.51147 z m 2.64428,0 h 2.51355 v 2.51406 h -2.51355 z m 2.64687,0 h 2.51354 v 2.51406 h -2.51354 z m 2.64635,0 h 2.51147 v 2.51406 h -2.51147 z m 2.64428,0 h 2.51355 v 2.51406 h -2.51355 z m 2.64687,0 h 2.51354 v 2.51406 h -2.51354 z m 2.64635,0 h 2.51147 v 2.51406 h -2.51147 z m 2.64428,0 h 2.51355 v 2.51406 h -2.51355 z m 2.64687,0 h 2.51354 v 2.51406 h -2.51354 z m 2.64635,0 h 2.51147 v 2.51406 h -2.51147 z m 2.64428,0 h 2.51355 v 2.51406 h -2.51355 z m 2.64687,0 h 2.51354 v 2.51406 h -2.51354 z m 2.64635,0 h 2.51147 v 2.51406 h -2.51147 z m 2.64428,0 h 2.51355 v 2.51406 h -2.51355 z m 2.64687,0 h 2.51354 v 2.51406 h -2.51354 z m 2.64635,0 h 2.51147 v 2.51406 h -2.51147 z m 2.64428,0 h 2.51355 v 2.51406 h -2.51355 z m 2.64687,0 h 2.51354 v 2.51406 h -2.51354 z m 2.64635,0 h 2.51147 v 2.51406 h -2.51147 z m -79.375,2.64687 h 2.51147 v 2.51354 h -2.51147 z m 2.64428,0 h 2.51355 v 2.51354 h -2.51355 z m 2.64687,0 h 2.51354 v 2.51354 h -2.51354 z m 2.64635,0 h 2.51147 v 2.51354 h -2.51147 z m 2.64428,0 h 2.51355 v 2.51354 h -2.51355 z m 2.64687,0 h 2.51354 v 2.51354 h -2.51354 z m 2.64635,0 h 2.51147 v 2.51354 h -2.51147 z m 2.64428,0 h 2.51355 v 2.51354 h -2.51355 z m 2.64687,0 h 2.51354 v 2.51354 h -2.51354 z m 2.64635,0 h 2.51147 v 2.51354 h -2.51147 z m 2.64428,0 h 2.51355 v 2.51354 h -2.51355 z m 2.64687,0 h 2.51354 v 2.51354 h -2.51354 z m 2.64635,0 h 2.51147 v 2.51354 h -2.51147 z m 2.64428,0 h 2.51355 v 2.51354 h -2.51355 z m 2.64687,0 h 2.51354 v 2.51354 h -2.51354 z m 2.64635,0 h 2.51147 v 2.51354 h -2.51147 z m 2.64428,0 h 2.51355 v 2.51354 h -2.51355 z m 2.64687,0 h 2.51354 v 2.51354 h -2.51354 z m 2.64635,0 h 2.51147 v 2.51354 h -2.51147 z m 2.64428,0 h 2.51355 v 2.51354 h -2.51355 z m 2.64687,0 h 2.51354 v 2.51354 h -2.51354 z m 2.64635,0 h 2.51147 v 2.51354 h -2.51147 z m 2.64428,0 h 2.51355 v 2.51354 h -2.51355 z m 2.64687,0 h 2.51354 v 2.51354 h -2.51354 z m 2.64635,0 h 2.51147 v 2.51354 h -2.51147 z m 2.64428,0 h 2.51355 v 2.51354 h -2.51355 z m 2.64687,0 h 2.51354 v 2.51354 h -2.51354 z m 2.64635,0 h 2.51147 v 2.51354 h -2.51147 z m 2.64428,0 h 2.51355 v 2.51354 h -2.51355 z m 2.64687,0 h 2.51354 v 2.51354 h -2.51354 z m 2.64635,0 h 2.51147 v 2.51354 h -2.51147 z m -79.375,2.64635 h 2.51147 v 2.51147 h -2.51147 z m 2.64428,0 h 2.51355 v 2.51147 h -2.51355 z m 2.64687,0 h 2.51354 v 2.51147 h -2.51354 z m 2.64635,0 h 2.51147 v 2.51147 h -2.51147 z m 2.64428,0 h 2.51355 v 2.51147 h -2.51355 z m 2.64687,0 h 2.51354 v 2.51147 h -2.51354 z m 2.64635,0 h 2.51147 v 2.51147 h -2.51147 z m 2.64428,0 h 2.51355 v 2.51147 h -2.51355 z m 2.64687,0 h 2.51354 v 2.51147 h -2.51354 z m 2.64635,0 h 2.51147 v 2.51147 h -2.51147 z m 2.64428,0 h 2.51355 v 2.51147 h -2.51355 z m 2.64687,0 h 2.51354 v 2.51147 h -2.51354 z m 2.64635,0 h 2.51147 v 2.51147 h -2.51147 z m 2.64428,0 h 2.51355 v 2.51147 h -2.51355 z m 2.64687,0 h 2.51354 v 2.51147 h -2.51354 z m 2.64635,0 h 2.51147 v 2.51147 h -2.51147 z m 2.64428,0 h 2.51355 v 2.51147 h -2.51355 z m 2.64687,0 h 2.51354 v 2.51147 h -2.51354 z m 2.64635,0 h 2.51147 v 2.51147 h -2.51147 z m 2.64428,0 h 2.51355 v 2.51147 h -2.51355 z m 2.64687,0 h 2.51354 v 2.51147 h -2.51354 z m 2.64635,0 h 2.51147 v 2.51147 h -2.51147 z m 2.64428,0 h 2.51355 v 2.51147 h -2.51355 z m 2.64687,0 h 2.51354 v 2.51147 h -2.51354 z m 2.64635,0 h 2.51147 v 2.51147 h -2.51147 z m 2.64428,0 h 2.51355 v 2.51147 h -2.51355 z m 2.64687,0 h 2.51354 v 2.51147 h -2.51354 z m 2.64635,0 h 2.51147 v 2.51147 h -2.51147 z m 2.64428,0 h 2.51355 v 2.51147 h -2.51355 z m 2.64687,0 h 2.51354 v 2.51147 h -2.51354 z m 2.64635,0 h 2.51147 v 2.51147 h -2.51147 z m -79.375,2.64428 h 2.51147 v 2.51406 h -2.51147 z m 2.64428,0 h 2.51355 v 2.51406 h -2.51355 z m 2.64687,0 h 2.51354 v 2.51406 h -2.51354 z m 2.64635,0 h 2.51147 v 2.51406 h -2.51147 z m 2.64428,0 h 2.51355 v 2.51406 h -2.51355 z m 2.64687,0 h 2.51354 v 2.51406 h -2.51354 z m 2.64635,0 h 2.51147 v 2.51406 h -2.51147 z m 2.64428,0 h 2.51355 v 2.51406 h -2.51355 z m 2.64687,0 h 2.51354 v 2.51406 h -2.51354 z m 2.64635,0 h 2.51147 v 2.51406 h -2.51147 z m 2.64428,0 h 2.51355 v 2.51406 h -2.51355 z m 2.64687,0 h 2.51354 v 2.51406 h -2.51354 z m 2.64635,0 h 2.51147 v 2.51406 h -2.51147 z m 2.64428,0 h 2.51355 v 2.51406 h -2.51355 z m 2.64687,0 h 2.51354 v 2.51406 h -2.51354 z m 2.64635,0 h 2.51147 v 2.51406 h -2.51147 z m 2.64428,0 h 2.51355 v 2.51406 h -2.51355 z m 2.64687,0 h 2.51354 v 2.51406 h -2.51354 z m 2.64635,0 h 2.51147 v 2.51406 h -2.51147 z m 2.64428,0 h 2.51355 v 2.51406 h -2.51355 z m 2.64687,0 h 2.51354 v 2.51406 h -2.51354 z m 2.64635,0 h 2.51147 v 2.51406 h -2.51147 z m 2.64428,0 h 2.51355 v 2.51406 h -2.51355 z m 2.64687,0 h 2.51354 v 2.51406 h -2.51354 z m 2.64635,0 h 2.51147 v 2.51406 h -2.51147 z m 2.64428,0 h 2.51355 v 2.51406 h -2.51355 z m 2.64687,0 h 2.51354 v 2.51406 h -2.51354 z m 2.64635,0 h 2.51147 v 2.51406 h -2.51147 z m 2.64428,0 h 2.51355 v 2.51406 h -2.51355 z m 2.64687,0 h 2.51354 v 2.51406 h -2.51354 z m 2.64635,0 h 2.51147 v 2.51406 h -2.51147 z m -79.375,2.64687 h 2.51147 v 2.51354 h -2.51147 z m 2.64428,0 h 2.51355 v 2.51354 h -2.51355 z m 2.64687,0 h 2.51354 v 2.51354 h -2.51354 z m 2.64635,0 h 2.51147 v 2.51354 h -2.51147 z m 2.64428,0 h 2.51355 v 2.51354 h -2.51355 z m 2.64687,0 h 2.51354 v 2.51354 h -2.51354 z m 2.64635,0 h 2.51147 v 2.51354 h -2.51147 z m 2.64428,0 h 2.51355 v 2.51354 h -2.51355 z m 2.64687,0 h 2.51354 v 2.51354 h -2.51354 z m 2.64635,0 h 2.51147 v 2.51354 h -2.51147 z m 2.64428,0 h 2.51355 v 2.51354 h -2.51355 z m 2.64687,0 h 2.51354 v 2.51354 h -2.51354 z m 2.64635,0 h 2.51147 v 2.51354 h -2.51147 z m 2.64428,0 h 2.51355 v 2.51354 h -2.51355 z m 2.64687,0 h 2.51354 v 2.51354 h -2.51354 z m 2.64635,0 h 2.51147 v 2.51354 h -2.51147 z m 2.64428,0 h 2.51355 v 2.51354 h -2.51355 z m 2.64687,0 h 2.51354 v 2.51354 h -2.51354 z m 2.64635,0 h 2.51147 v 2.51354 h -2.51147 z m 2.64428,0 h 2.51355 v 2.51354 h -2.51355 z m 2.64687,0 h 2.51354 v 2.51354 h -2.51354 z m 2.64635,0 h 2.51147 v 2.51354 h -2.51147 z m 2.64428,0 h 2.51355 v 2.51354 h -2.51355 z m 2.64687,0 h 2.51354 v 2.51354 h -2.51354 z m 2.64635,0 h 2.51147 v 2.51354 h -2.51147 z m 2.64428,0 h 2.51355 v 2.51354 h -2.51355 z m 2.64687,0 h 2.51354 v 2.51354 h -2.51354 z m 2.64635,0 h 2.51147 v 2.51354 h -2.51147 z m 2.64428,0 h 2.51355 v 2.51354 h -2.51355 z m 2.64687,0 h 2.51354 v 2.51354 h -2.51354 z m 2.64635,0 h 2.51147 v 2.51354 h -2.51147 z"
       id="path1029-7"
       inkscape:connector-curvature="0"
       inkscape:label="grid_blur"
       sodipodi:insensitive="true" />
    <path
       style="display:inline;opacity:0.8;fill:none;fill-rule:evenodd;stroke:#ffffff;stroke-width:0.2;stroke-linecap:butt;stroke-linejoin:miter;stroke-miterlimit:4;stroke-dasharray:none;stroke-opacity:1"
       d="m 115.09375,131.63542 h 87.3125"
       id="path904"
       inkscape:connector-curvature="0"
       inkscape:label="border-bottom"
       sodipodi:insensitive="true" />
    <path
       style="display:inline;fill:none;fill-rule:evenodd;stroke:#808080;stroke-width:0.2;stroke-linecap:round;stroke-linejoin:miter;stroke-miterlimit:4;stroke-dasharray:none;stroke-opacity:1"
       d="m 115.09375,110.46875 c 0,0 0,21.16667 0,21.16667"
       id="path906"
       inkscape:connector-curvature="0"
       inkscape:label="border-left"
       sodipodi:insensitive="true" />
    <path
       style="display:inline;fill:none;fill-rule:evenodd;stroke:#808080;stroke-width:0.2;stroke-linecap:round;stroke-linejoin:miter;stroke-miterlimit:4;stroke-dasharray:none;stroke-opacity:1"
       d="m 202.40625,110.46875 c 0,0 0,21.16667 0,21.16667"
       id="path908"
       inkscape:connector-curvature="0"
       inkscape:label="border-right"
       sodipodi:insensitive="true" />
    <path
       style="display:inline;opacity:0.8;fill:none;fill-rule:evenodd;stroke:#000000;stroke-width:0.2;stroke-linecap:round;stroke-linejoin:miter;stroke-miterlimit:4;stroke-dasharray:none;stroke-opacity:1"
       d="m 115.16057,110.46875 h 87.3125"
       id="path902"
       inkscape:connector-curvature="0"
       sodipodi:nodetypes="cc"
       inkscape:label="border-top"
       sodipodi:insensitive="true" />
  </g>
</svg>
