<?xml version="1.0" encoding="UTF-8" standalone="no"?>
<!-- Created with Inkscape (http://www.inkscape.org/) -->

<svg
   xmlns:dc="http://purl.org/dc/elements/1.1/"
   xmlns:cc="http://creativecommons.org/ns#"
   xmlns:rdf="http://www.w3.org/1999/02/22-rdf-syntax-ns#"
   xmlns:svg="http://www.w3.org/2000/svg"
   xmlns="http://www.w3.org/2000/svg"
   xmlns:sodipodi="http://sodipodi.sourceforge.net/DTD/sodipodi-0.dtd"
   xmlns:inkscape="http://www.inkscape.org/namespaces/inkscape"
   version="1.1"
   id="svg11057"
   width="655.33173"
   height="645.58514"
   viewBox="0 0 655.33172 645.58514"
   sodipodi:docname="dstudio_logo.svg"
   inkscape:version="0.92.4 5da689c313, 2019-01-14"
   style="enable-background:new">
  <metadata
     id="metadata11063">
    <rdf:RDF>
      <cc:Work
         rdf:about="">
        <dc:format>image/svg+xml</dc:format>
        <dc:type
           rdf:resource="http://purl.org/dc/dcmitype/StillImage" />
        <dc:title></dc:title>
      </cc:Work>
    </rdf:RDF>
  </metadata>
  <defs
     id="defs11061" />
  <sodipodi:namedview
     pagecolor="#ffffff"
     bordercolor="#666666"
     borderopacity="1"
     objecttolerance="10"
     gridtolerance="10"
     guidetolerance="10"
     inkscape:pageopacity="0"
     inkscape:pageshadow="2"
     inkscape:window-width="1916"
     inkscape:window-height="1043"
     id="namedview11059"
     showgrid="false"
     inkscape:snap-smooth-nodes="false"
     inkscape:snap-object-midpoints="true"
     inkscape:snap-center="true"
     inkscape:snap-text-baseline="true"
     inkscape:snap-midpoints="false"
     inkscape:snap-intersection-paths="true"
     inkscape:object-paths="false"
     inkscape:snap-bbox="false"
     inkscape:bbox-paths="true"
     inkscape:bbox-nodes="true"
     inkscape:snap-bbox-edge-midpoints="true"
     inkscape:snap-bbox-midpoints="true"
     inkscape:snap-nodes="true"
     inkscape:object-nodes="false"
     inkscape:snap-global="true"
     inkscape:zoom="0.22539029"
     inkscape:cx="348.37552"
     inkscape:cy="314.13325"
     inkscape:window-x="0"
     inkscape:window-y="18"
     inkscape:window-maximized="0"
     inkscape:current-layer="svg11057"
     fit-margin-top="5"
     fit-margin-left="5"
     fit-margin-bottom="5"
     fit-margin-right="5">
    <inkscape:grid
       type="xygrid"
       id="grid11077"
       originx="247.66587"
       originy="-197.38565" />
  </sodipodi:namedview>
  <path
     style="color:#000000;font-style:normal;font-variant:normal;font-weight:normal;font-stretch:normal;font-size:medium;line-height:normal;font-family:sans-serif;font-variant-ligatures:normal;font-variant-position:normal;font-variant-caps:normal;font-variant-numeric:normal;font-variant-alternates:normal;font-feature-settings:normal;text-indent:0;text-align:start;text-decoration:none;text-decoration-line:none;text-decoration-style:solid;text-decoration-color:#000000;letter-spacing:normal;word-spacing:normal;text-transform:none;writing-mode:lr-tb;direction:ltr;text-orientation:mixed;dominant-baseline:auto;baseline-shift:baseline;text-anchor:start;white-space:normal;shape-padding:0;clip-rule:nonzero;display:inline;overflow:visible;visibility:visible;opacity:1;isolation:auto;mix-blend-mode:normal;color-interpolation:sRGB;color-interpolation-filters:linearRGB;solid-color:#000000;solid-opacity:1;vector-effect:none;fill:#000000;fill-opacity:1;fill-rule:evenodd;stroke:none;stroke-width:3.77999997;stroke-linecap:butt;stroke-linejoin:miter;stroke-miterlimit:4;stroke-dasharray:none;stroke-dashoffset:0;stroke-opacity:1;color-rendering:auto;image-rendering:auto;shape-rendering:auto;text-rendering:auto;enable-background:accumulate"
     d="m 220.7147,19.123125 -0.76172,0.64063 c -0.0282,0.16235 -0.14258,0.83203 -0.14258,0.83203 0,0 -11.44044,65.00847 -14.71093,130.423835 -1.63525,32.70768 -1.24781,65.5102 3.70703,90.51758 2.47741,12.50368 6.08111,23.07444 11.30859,30.76171 5.22748,7.68728 12.28415,12.49416 21.07422,12.84376 8.79007,0.34957 18.94594,-3.54231 30.17773,-10.35352 11.2318,-6.81121 23.54495,-16.61044 36.45508,-28.41211 25.82026,-23.60333 54.00951,-55.22602 80.1543,-86.91992 35.61742,-43.17707 67.05277,-85.987005 83.7207,-109.218755 l -2.90234,-2.4375 c -16.58844,23.12781 -48.07008,66.018065 -83.73438,109.251955 -26.08126,31.6169 -54.19893,63.1422 -79.78906,86.53516 -12.79506,11.69648 -24.96183,21.35668 -35.86523,27.96875 -10.9034,6.61206 -20.53534,10.1081 -28.06641,9.80859 -7.53107,-0.29951 -13.33004,-4.1775 -18.09961,-11.19141 -4.76957,-7.01389 -8.30509,-17.15959 -10.72461,-29.37109 -4.83905,-24.42299 -5.26996,-57.04336 -3.64258,-89.59375 3.25477,-65.100785 14.66016,-129.958985 14.66016,-129.958985 0,0 0.18856,-1.09902 0.36328,-2.12696 z m 17.94726,0 c -2.38808,20.47315 -4.63744,43.99311 -5.81835,67.61328 -1.63525,32.707685 -1.24781,65.508265 3.70703,90.515635 2.47741,12.50369 6.08111,23.07445 11.30859,30.76172 5.22748,7.68727 12.28415,12.49417 21.07422,12.84375 8.79007,0.34957 18.94594,-3.54035 30.17773,-10.35156 11.2318,-6.81122 23.54495,-16.61044 36.45508,-28.41211 25.82027,-23.60334 54.00951,-55.226 80.1543,-86.919935 15.64114,-18.9609 30.5122,-37.91303 43.72656,-55.21484 l -2.89844,-2.43359 c -13.2153,17.30625 -28.09652,36.27343 -43.74414,55.24219 -26.08127,31.616895 -54.19893,63.142195 -79.78906,86.535155 -12.79506,11.69648 -24.96183,21.35864 -35.86523,27.9707 -10.9034,6.61207 -20.53534,10.10615 -28.06641,9.80665 -7.53107,-0.29951 -13.32809,-4.17752 -18.09766,-11.19141 -4.76956,-7.01389 -8.30704,-17.15961 -10.72656,-29.37109 -4.83904,-24.42301 -5.26801,-57.04336 -3.64062,-89.593765 1.18402,-23.68246 3.44816,-47.29355 5.84765,-67.80078 z m 22.11719,0 c -0.0602,1.11075 -0.13584,2.21683 -0.1914,3.32813 -1.63525,32.70767 -1.2478,65.50825 3.70703,90.515625 2.47741,12.50369 6.08111,23.0764 11.30859,30.76368 5.22748,7.68727 12.28415,12.49417 21.07422,12.84375 8.79007,0.34957 18.94594,-3.54231 30.17773,-10.35352 11.2318,-6.81121 23.54495,-16.61044 36.45508,-28.41211 25.82027,-23.603345 54.00951,-55.226015 80.1543,-86.919925 0.70897,-0.85944 1.39765,-1.71678 2.10351,-2.57617 l -2.89648,-2.42969 c -0.71226,0.86722 -1.40764,1.73235 -2.12305,2.59961 -26.08127,31.61691 -54.19698,63.14415 -79.78711,86.537115 -12.79506,11.69648 -24.96378,21.35668 -35.86718,27.96875 -10.9034,6.61207 -20.53534,10.1081 -28.06641,9.80859 -7.53107,-0.29951 -13.32809,-4.17751 -18.09766,-11.1914 -4.76956,-7.01389 -8.30704,-17.16156 -10.72656,-29.37305 -4.83904,-24.422995 -5.26801,-57.041415 -3.64062,-89.591805 0.0587,-1.17436 0.13922,-2.34376 0.20312,-3.51758 z m 27.58203,0 c 0.71946,10.60945 1.90077,20.59205 3.67774,29.56055 2.47741,12.50369 6.08111,23.07445 11.30859,30.76172 5.22748,7.68727 12.28415,12.49417 21.07422,12.84375 8.79007,0.34958 18.94595,-3.54231 30.17773,-10.35352 11.2318,-6.81121 23.54495,-16.61044 36.45508,-28.41211 11.14156,-10.18494 22.72343,-21.86769 34.39258,-34.40039 h -5.18164 c -10.79625,11.49696 -21.48282,22.21677 -31.75977,31.61133 -12.79506,11.69648 -24.96378,21.35669 -35.86718,27.96875 -10.90341,6.61207 -20.53534,10.1081 -28.06641,9.8086 -7.53106,-0.29951 -13.32809,-4.17752 -18.09765,-11.19141 -4.76957,-7.01389 -8.30705,-17.1596 -10.72657,-29.37109 -1.72192,-8.69065 -2.87674,-18.43211 -3.58789,-28.82618 z m -85,14.56055 -4.26757,3.58203 c -3.61995,28.18516 -7.02735,47.61524 -7.02735,47.61524 0,0 -11.44239,65.008475 -14.71289,130.423825 -1.63525,32.70768 -1.24585,65.50826 3.70899,90.51563 2.47741,12.50369 6.08111,23.0764 11.30859,30.76367 5.22748,7.68727 12.28415,12.49222 21.07422,12.8418 8.79007,0.34957 18.94594,-3.54035 30.17773,-10.35156 11.2318,-6.81122 23.54495,-16.61045 36.45508,-28.41211 25.82026,-23.60334 54.00951,-55.22602 80.1543,-86.91993 52.28956,-63.3878 96.38671,-127.072265 96.38671,-127.072265 0,0 10.25875,-14.77768 26.47461,-36.8711 l -2.90234,-2.43554 c -16.34543,22.26495 -26.67969,37.15429 -26.67969,37.1543 0,0 -44.03278,63.584555 -96.19531,126.818355 -26.08126,31.61691 -54.19893,63.1422 -79.78906,86.53516 -12.79506,11.69648 -24.96183,21.35864 -35.86524,27.9707 -10.9034,6.61207 -20.53729,10.1081 -28.06835,9.8086 -7.53107,-0.29951 -13.32809,-4.17947 -18.09766,-11.19336 -4.76957,-7.01389 -8.30704,-17.1596 -10.72656,-29.3711 -4.83905,-24.42298 -5.26801,-57.0414 -3.64063,-89.59179 3.25477,-65.10078 14.66016,-129.958995 14.66016,-129.958995 0,0 3.75163,-21.35414 7.57226,-51.85156 z m -22.9414,19.25 -4.09375,3.43555 c -4.57748,50.529955 -12.00391,92.794925 -12.00391,92.794925 0,0 -11.44239,65.01045 -14.71289,130.42578 -1.63525,32.70767 -1.24585,65.50826 3.70899,90.51563 2.47741,12.50368 6.08111,23.07445 11.30859,30.76171 5.22748,7.68727 12.28219,12.49418 21.07226,12.84375 8.79008,0.34959 18.94789,-3.54231 30.17969,-10.35351 11.2318,-6.81121 23.54495,-16.6085 36.45508,-28.41016 25.82027,-23.60332 54.00951,-55.22797 80.1543,-86.92187 52.28957,-63.3878 96.38671,-127.07227 96.38671,-127.07227 0,0 28.60828,-41.30268 67.00586,-90.423835 l -2.89648,-2.43164 c -38.52414,49.275905 -67.2168,90.703135 -67.2168,90.703135 0,0 -44.03277,63.58651 -96.19531,126.82031 -26.08127,31.6169 -54.19893,63.14221 -79.78906,86.53516 -12.79507,11.69647 -24.96183,21.35864 -35.86524,27.9707 -10.9034,6.61206 -20.53729,10.10615 -28.06835,9.80664 -7.53107,-0.2995 -13.3281,-4.17752 -18.09766,-11.19141 -4.76957,-7.01388 -8.30704,-17.1596 -10.72656,-29.37109 -4.83905,-24.42298 -5.26801,-57.04337 -3.64063,-89.59375 3.25477,-65.10076 14.66016,-129.95703 14.66016,-129.95703 0,0 7.81768,-44.49529 12.375,-96.886725 z m -24.98828,20.9668 -3.90625,3.27929 c -0.0874,2.10253 -0.18386,4.20636 -0.28907,6.31055 -3.25477,65.100785 -14.6582,129.958995 -14.6582,129.958995 0,0 -11.44239,65.00848 -14.71289,130.42382 -1.63525,32.70768 -1.24585,65.51021 3.70898,90.51758 2.47742,12.50369 6.08112,23.07444 11.3086,30.76172 5.22747,7.68728 12.28219,12.49416 21.07226,12.84375 8.79008,0.34957 18.94594,-3.5423 30.17774,-10.35351 11.2318,-6.81122 23.5469,-16.61045 36.45703,-28.41211 25.82027,-23.60334 54.00951,-55.22602 80.1543,-86.91993 52.28957,-63.3878 96.38671,-127.07226 96.38671,-127.07226 0,0 44.03277,-63.5865 96.19532,-126.820315 4.32284,-5.24035 8.71496,-10.46146 13.1289,-15.66016 l -2.89648,-2.43164 c -4.42134,5.20813 -8.81918,10.43938 -13.14844,15.6875 -52.28958,63.387815 -96.38672,127.072265 -96.38672,127.072265 0,0 -44.03277,63.58651 -96.19531,126.82032 -26.08127,31.6169 -54.19893,63.14219 -79.78906,86.53515 -12.79507,11.69648 -24.96183,21.35668 -35.86524,27.96875 -10.9034,6.61207 -20.53728,10.1081 -28.06836,9.8086 -7.53106,-0.29952 -13.32809,-4.17751 -18.09765,-11.19141 -4.76957,-7.0139 -8.30704,-17.16155 -10.72657,-29.37305 -4.83904,-24.42299 -5.26801,-57.04141 -3.64062,-89.59179 3.25477,-65.10078 14.66016,-129.95899 14.66016,-129.95899 0,0 11.44043,-65.00847 14.71093,-130.423835 0.16309,-3.26201 0.2996,-6.52325 0.41993,-9.77929 z m 369.36914,20.89453 c -19.33837,19.810825 -39.26717,42.629785 -58.13477,65.501955 -52.28957,63.38781 -96.38672,127.07422 -96.38672,127.07422 0,0 -44.03277,63.58455 -96.19531,126.81836 -26.08127,31.61691 -54.19893,63.1422 -79.78906,86.53516 -12.79507,11.69647 -24.96184,21.35864 -35.86524,27.9707 -10.9034,6.61206 -20.53729,10.10615 -28.06836,9.80664 -7.53106,-0.2995 -13.32809,-4.17752 -18.09765,-11.19141 -4.76957,-7.01388 -8.30704,-17.1596 -10.72657,-29.37109 -4.839039,-24.42298 -5.268009,-57.04141 -3.640619,-89.5918 3.254769,-65.10077 14.660169,-129.95898 14.660149,-129.95898 0,0 11.44045,-65.01044 14.71094,-130.42578 0.86594,-17.32026 1.15416,-34.65416 0.50782,-50.855475 l -3.67188,3.080085 c 0.49699,15.2033 0.19786,31.40284 -0.61133,47.58789 -3.25476,65.10077 -14.6582,129.95898 -14.6582,129.95898 0,0 -11.442389,65.00848 -14.712889,130.42383 -1.63525,32.70767 -1.24585,65.50826 3.70898,90.51562 0.43439,2.19239 0.91751,4.30063 1.42383,6.36915 l 19.529299,33.82617 c 3.40538,2.04102 7.21508,3.24262 11.42773,3.41015 8.79008,0.34959 18.94594,-3.54035 30.17774,-10.35156 11.2318,-6.81121 23.54689,-16.61044 36.45703,-28.41211 25.82027,-23.60333 54.00951,-55.22602 80.1543,-86.91992 52.28957,-63.38781 96.38671,-127.07422 96.38671,-127.07422 0,0 44.03278,-63.58455 96.19532,-126.81836 18.8862,-22.89472 38.83612,-45.72517 58.125,-65.470705 z m 23.13476,19.412115 c -9.10724,6.29846 -18.79826,14.25781 -28.85937,23.45508 -25.82027,23.60333 -54.00951,55.22602 -80.1543,86.91992 -52.28957,63.3878 -96.38672,127.07226 -96.38672,127.07226 0,0 -44.03277,63.58651 -96.19531,126.82032 -26.08127,31.6169 -54.19893,63.1422 -79.78906,86.53515 -0.53807,0.49187 -1.06772,0.95877 -1.60352,1.44336 l 4.02344,1.46289 c 0.0438,-0.04 0.0871,-0.0772 0.13086,-0.11719 25.82026,-23.6033 54.00951,-55.22601 80.15429,-86.91992 52.28958,-63.3878 96.38673,-127.07226 96.38672,-127.07226 0,0 44.03277,-63.58651 96.19532,-126.82032 26.08125,-31.61689 54.19893,-63.14219 79.78906,-86.53515 10.29468,-9.41078 20.16986,-17.46942 29.32031,-23.7168 z m -451.771479,9.42383 -3.33203,2.79687 c 4.14656,23.92962 4.4572,54.80454 2.91601,85.63086 -3.25477,65.10078 -14.6582,129.95898 -14.6582,129.95899 0,0 -9.00514,51.23681 -13.31836,108.49804 l 3.37305,5.84375 c 4.10639,-59.20587 13.66796,-113.68555 13.66796,-113.68555 0,0 11.44045,-65.01043 14.71094,-130.42578 1.594639,-31.89539 1.252709,-63.85813 -3.35937,-88.61718 z m -38.79493,32.55273 -0.51562,0.43359 -0.83203,4.72461 c 3.58399,6.66531 6.34493,15.33186 8.3418,25.41016 4.83904,24.42299 5.26801,57.04141 3.64062,89.5918 -3.25477,65.10077 -14.66016,129.95898 -14.66016,129.95898 0,0 -0.99909,5.81739 -2.42382,15.02539 l 3.02734,5.24414 c 1.80417,-11.97444 3.12109,-19.61523 3.12109,-19.61523 0,0 11.44044,-65.00848 14.71094,-130.42383 1.63525,-32.70768 1.2478,-65.51021 -3.70703,-90.51758 -2.37982,-12.01107 -5.80376,-22.23077 -10.70313,-29.83203 z m 498.933599,6.98242 c -8.3999,0.16448 -17.98581,3.98363 -28.51563,10.36914 -11.23179,6.81121 -23.54494,16.60849 -36.45507,28.41016 -25.82027,23.60333 -54.00951,55.22798 -80.1543,86.92187 -52.28958,63.3878 -96.38672,127.07227 -96.38672,127.07227 0,0 -44.03278,63.58455 -96.19531,126.81836 -9.18025,11.12873 -18.61379,22.23845 -28.09961,32.99414 l 3.81445,1.38867 c 9.18632,-10.44514 18.31174,-21.20275 27.19922,-31.97656 52.28957,-63.38781 96.38867,-127.07227 96.38867,-127.07227 0,0 44.03277,-63.58651 96.19531,-126.82031 26.08128,-31.6169 54.19894,-63.14219 79.78907,-86.53516 12.79506,-11.69646 24.96183,-21.35863 35.86523,-27.9707 10.9034,-6.61206 20.53729,-10.10615 28.06836,-9.80664 7.53107,0.29951 13.32809,4.17752 18.09766,11.19141 4.76956,7.01389 8.30704,17.1596 10.72656,29.37109 4.83904,24.42299 5.26801,57.04336 3.64062,89.59375 -3.25477,65.10078 -14.66015,129.95703 -14.66015,129.95703 0,0 -4.32028,24.5881 -8.41016,58.68946 l 4.8418,-8.38477 c 3.71749,-29.31191 7.29101,-49.64844 7.29101,-49.64844 0,0 11.44241,-65.01043 14.71289,-130.42578 1.63525,-32.70767 1.24585,-65.50825 -3.70898,-90.51562 -2.47742,-12.50369 -6.08112,-23.07445 -11.30859,-30.76172 -5.22748,-7.68728 -12.2822,-12.49417 -21.07227,-12.84375 -0.54938,-0.0219 -1.10407,-0.0266 -1.66406,-0.0156 z m -27.7461,64.28516 c -8.39968,0.16426 -17.98385,3.98167 -28.51367,10.36719 -11.23179,6.81121 -23.54494,16.61044 -36.45507,28.41211 -25.82027,23.60333 -54.00951,55.22601 -80.1543,86.91992 -52.28958,63.38781 -96.38672,127.07422 -96.38672,127.07422 0,0 -33.52498,48.40589 -76.7168,102.74609 l 3.74024,1.36132 c 42.90636,-54.0564 76.08398,-101.95702 76.08398,-101.95702 0,0 44.03278,-63.58454 96.19531,-126.81836 26.08128,-31.61691 54.19893,-63.1422 79.78907,-86.53516 12.79506,-11.69648 24.96183,-21.35863 35.86523,-27.9707 10.9034,-6.61207 20.53729,-10.1081 28.06836,-9.8086 7.53107,0.29951 13.32809,4.17947 18.09766,11.19336 4.76957,7.01389 8.30704,17.1596 10.72656,29.3711 4.83904,24.42298 5.26801,57.04141 3.64062,89.59179 -3.25478,65.10078 -14.66015,129.95899 -14.66015,129.95899 0,0 -2.6394,15.04757 -5.74024,37.83398 l 5.03516,-8.7207 c 2.49318,-17.40631 4.42773,-28.45898 4.42773,-28.45898 0,0 11.44239,-65.00849 14.71289,-130.42383 1.63526,-32.70768 1.24585,-65.50826 -3.70898,-90.51563 -2.47742,-12.50368 -6.08111,-23.0764 -11.30859,-30.76367 -5.22748,-7.68727 -12.28415,-12.49222 -21.07422,-12.8418 -0.54938,-0.0218 -1.10409,-0.0266 -1.66407,-0.0156 z m -488.226559,22.875 -1.97265,11.19141 c 3.17262,22.88311 3.30696,51.01667 1.90234,79.11132 -0.93825,18.76647 -2.56037,37.46059 -4.38477,54.63868 l 3.21094,5.56054 c 2.05428,-18.5971 3.91248,-39.2753 4.94922,-60.01172 1.63471,-32.69686 1.24509,-65.48598 -3.70508,-90.49023 z m 576.044919,7.79492 c -4.38939,55.60607 -13.00976,104.66797 -13.00976,104.66797 0,0 -6.08648,34.66462 -10.65039,78.79687 l 4.65625,-8.06445 c 4.40756,-39.86375 9.71679,-70.07812 9.7168,-70.07812 0,0 7.22774,-41.14224 11.83593,-90.875 z m -115.5625,33.61328 c -8.39969,0.16447 -17.98386,3.98363 -28.51367,10.36914 -11.23179,6.81121 -23.54494,16.61044 -36.45508,28.41211 -25.82026,23.60334 -54.0095,55.22602 -80.15429,86.91992 -52.28958,63.38781 -96.38672,127.07227 -96.38672,127.07227 0,0 -12.57772,18.14484 -32.1543,44.58398 l 3.70313,1.34766 c 19.23864,-26.00847 31.55859,-43.7793 31.55859,-43.7793 0,0 44.03278,-63.5865 96.19531,-126.82031 26.08127,-31.61691 54.19893,-63.1422 79.78907,-86.53516 12.79506,-11.69648 24.96183,-21.35668 35.86523,-27.96875 10.9034,-6.61206 20.53534,-10.1081 28.06641,-9.80859 7.53107,0.29951 13.33004,4.17752 18.09961,11.19141 4.76957,7.01389 8.30507,17.1596 10.72461,29.37109 4.83904,24.42298 5.26996,57.04337 3.64257,89.59375 -3.25203,65.04595 -14.63707,129.83037 -14.65625,129.93945 l 4.08789,-1.48632 c 1.76719,-10.40482 11.37356,-68.894 14.3418,-128.26368 1.63525,-32.70766 1.2478,-65.51021 -3.70703,-90.51757 -2.47742,-12.50369 -6.08111,-23.07445 -11.30859,-30.76172 -5.22748,-7.68727 -12.28415,-12.49417 -21.07422,-12.84375 -0.54938,-0.0218 -1.10409,-0.0266 -1.66407,-0.0156 z m 126.69532,29.52735 c -2.6953,18.21966 -6.3159,45.51979 -8.88086,75.44531 l 4.49023,-7.77735 c 1.95982,-20.97879 4.367,-40.35122 6.5,-55.71484 z m -154.43946,34.75781 c -8.39968,0.16448 -17.98386,3.98363 -28.51367,10.36914 -11.23179,6.81121 -23.54494,16.60849 -36.45508,28.41015 -25.82026,23.60335 -54.0095,55.22603 -80.15429,86.91993 -37.42105,45.36349 -70.33695,90.46627 -86.20703,112.68359 l 3.6914,1.34375 c 16.05533,-22.45243 48.53499,-66.89329 85.43164,-111.62109 26.08128,-31.61691 54.19698,-63.1422 79.78711,-86.53516 12.79507,-11.69648 24.96379,-21.35864 35.86719,-27.9707 10.9034,-6.61207 20.53534,-10.10615 28.06641,-9.80664 7.53107,0.2995 13.32808,4.17751 18.09765,11.1914 4.76957,7.01389 8.30704,17.1596 10.72656,29.3711 4.83905,24.42299 5.26802,57.04336 3.64063,89.59375 -1.28127,25.62752 -3.82539,51.15353 -6.43945,72.76367 l 3.98632,-1.45117 c 2.53921,-21.26222 4.97981,-46.14882 6.22852,-71.125 1.63525,-32.70768 1.2478,-65.50825 -3.70703,-90.51563 -2.47742,-12.50369 -6.08109,-23.07444 -11.3086,-30.76172 -5.22748,-7.68727 -12.28414,-12.49417 -21.07421,-12.84375 -0.54938,-0.0219 -1.10409,-0.0266 -1.66407,-0.0156 z m -27.74414,64.28515 c -8.39969,0.16427 -17.98386,3.98168 -28.51367,10.36719 -11.23179,6.81122 -23.54494,16.61044 -36.45508,28.41211 -25.82026,23.60334 -54.00951,55.22602 -80.15429,86.91992 -15.30233,18.55018 -29.856,37.08067 -42.85547,54.07812 l 3.72266,1.35547 c 12.79418,-16.71043 27.06076,-34.85811 42.04882,-53.02734 26.08127,-31.6169 54.19698,-63.14414 79.78711,-86.53711 12.79507,-11.69648 24.96379,-21.35668 35.86719,-27.96875 10.9034,-6.61207 20.53533,-10.10809 28.06641,-9.80859 7.53104,0.2995 13.32808,4.17947 18.09765,11.19336 4.76957,7.01389 8.30704,17.1596 10.72656,29.37109 4.83905,24.42299 5.26801,57.04141 3.64063,89.5918 -0.27774,5.55521 -0.63137,11.09199 -1.01563,16.60352 l 3.88868,-1.41602 c 0.338,-4.98198 0.65157,-9.98216 0.90234,-14.99805 1.63525,-32.70767 1.2478,-65.50825 -3.70703,-90.51562 -2.47742,-12.50369 -6.08112,-23.0764 -11.3086,-30.76367 -5.22747,-7.68727 -12.28414,-12.49223 -21.07421,-12.8418 -0.54938,-0.0218 -1.10409,-0.0266 -1.66407,-0.0156 z m -27.74414,64.28321 c -8.39967,0.16447 -17.98386,3.98363 -28.51367,10.36914 -11.2318,6.8112 -23.5469,16.61044 -36.45703,28.41211 -24.8381,22.70548 -51.84896,52.83656 -77.14258,83.30859 l 3.77344,1.375 c 24.98238,-30.04038 51.58402,-59.64812 75.91992,-81.89453 12.79507,-11.69647 24.96181,-21.35669 35.86524,-27.96875 10.9034,-6.61206 20.53729,-10.10811 28.06835,-9.80859 7.53107,0.2995 13.32809,4.17752 18.09766,11.1914 4.76957,7.01389 8.30704,17.15961 10.72656,29.3711 2.91933,14.73399 4.22517,32.46002 4.45117,51.3457 l 3.76954,-1.37305 c -0.26896,-18.5293 -1.59275,-35.97476 -4.51172,-50.70703 -2.47742,-12.50368 -6.08112,-23.07445 -11.3086,-30.76172 -5.22748,-7.68726 -12.28413,-12.49418 -21.07422,-12.84375 -0.54937,-0.0219 -1.10408,-0.0266 -1.66406,-0.0156 z m -27.74414,64.28515 c -8.39967,0.16427 -17.98387,3.98168 -28.51367,10.36719 -11.23179,6.81121 -23.5469,16.61045 -36.45703,28.41211 -8.92025,8.15435 -18.12593,17.28058 -27.42969,27.02148 l 3.88282,1.41406 c 8.86522,-9.24099 17.62119,-17.89586 26.09765,-25.64453 12.79507,-11.69647 24.96184,-21.35863 35.86523,-27.9707 10.9034,-6.61206 20.5373,-10.10614 28.06836,-9.80664 7.53107,0.29951 13.32809,4.17752 18.09766,11.19141 4.61884,6.79223 8.07278,16.54018 10.48437,28.23828 l 3.58594,-1.30469 c -2.46318,-11.75197 -5.95996,-21.72935 -10.94531,-29.06054 -5.22748,-7.68727 -12.28219,-12.49223 -21.07227,-12.8418 -0.54937,-0.0219 -1.10408,-0.0266 -1.66406,-0.0156 z"
     id="path11098-7-20"
     inkscape:connector-curvature="0"
     inkscape:label="waves"
     sodipodi:nodetypes="cccssscsssccsssscssccccssscsssccssscssscccssscssccccsssssccccsssssccsscsscccccssscsssccccssccssscccccssscsssccccsssccssccccccssscssscsccscssscssscsccscsssccsscsccscsscccssscscccsscsccccscssccccsccccsccccssccccssccssscsccscsssssssccccsssccccsssccccssscsssccccssscccccsccscccccccccsssccccssssscsccssscccccccccscsccssscsssccsscccccsssccsssssssccsssccccssccsccssccssccccssccsccsccsccc" />
  <path
     sodipodi:type="star"
     style="opacity:1;fill:none;fill-opacity:1;stroke:#000000;stroke-width:3.78;stroke-linecap:butt;stroke-linejoin:round;stroke-miterlimit:4;stroke-dasharray:none;stroke-dashoffset:0;stroke-opacity:1"
     id="path11081"
     sodipodi:sides="9"
     sodipodi:cx="327.66587"
     sodipodi:cy="312.97079"
     sodipodi:r1="325.72437"
     sodipodi:r2="306.08078"
     sodipodi:arg1="1.5707963"
     sodipodi:arg2="1.9198622"
     inkscape:flatsided="true"
     inkscape:rounded="0"
     inkscape:randomized="0"
     d="M 327.66587,638.69516 118.29428,562.49014 6.8899843,369.53225 45.580284,150.10862 216.26156,6.8900152 439.07015,6.8900093 609.75143,150.1086 648.44174,369.53223 537.03746,562.49013 Z"
     inkscape:transform-center-y="9.8217906"
     inkscape:label="nonagon" />
</svg>
